<svg width="130" height="36" viewBox="0 0 130 36" fill="none" xmlns="http://www.w3.org/2000/svg">
<path d="M15.6591 0H11.6163V7.86443C8.75205 6.28793 5.20389 6.65098 2.72237 8.77446C0.240839 10.8979 -0.649713 14.3332 0.49008 17.3853C1.62987 20.4375 4.55917 22.4616 7.83276 22.4591H10.7715V18.4381H7.83276C6.30246 18.4381 4.92285 17.5213 4.33723 16.1151C3.75161 14.709 4.07531 13.0904 5.15739 12.0142C6.23948 10.938 7.86684 10.616 9.28065 11.1985C10.6945 11.7809 11.6163 13.1531 11.6163 14.6751H15.6591C15.6591 14.6557 15.6591 14.639 15.6591 14.6196V0Z" transform="translate(55.3291 0.0027771)" fill="#335061"/>
<path d="M2.41268 2.04439C0.848075 3.53193 -0.0253659 5.59877 0.000917369 7.75136C-0.0314579 9.82291 0.794316 11.8165 2.28442 13.2642C3.62274 14.562 5.47966 15.4355 7.92488 15.4355C9.22066 15.4766 10.5039 15.1722 11.6415 14.5537V10.3386C10.8116 11.0639 9.7462 11.4667 8.64143 11.4728C7.57474 11.4896 6.54851 11.0671 5.80587 10.3054C5.15865 9.59714 4.80849 8.66941 4.82723 7.71254C4.80728 6.69854 5.19461 5.71847 5.90346 4.98939C6.62054 4.30367 7.58279 3.93044 8.57731 3.95226C9.6998 3.94709 10.7873 4.34041 11.6443 5.06149V0.81037C10.4946 0.262011 9.23326 -0.0150902 7.95833 0.000633659C5.96759 0.000633659 4.04375 0.519198 2.41268 2.04439Z" transform="translate(0.5 7.30362)" fill="#335061"/>
<path d="M0 0H4.43318V22.4646H0V0Z" transform="translate(14.5645)" fill="#335061"/>
<path fill-rule="evenodd" clip-rule="evenodd" d="M2.0116 2.33493C3.21326 1.03714 5.25427 0 7.86658 0C10.4794 0 12.5287 1.03714 13.7216 2.33771C15.0741 3.79633 15.7347 5.87057 15.7347 7.72021C15.7435 9.69809 15.0282 11.6115 13.7216 13.1028C12.5199 14.4005 10.4794 15.4377 7.86658 15.4377C5.25427 15.4377 3.21326 14.4005 2.0116 13.1028C-0.670532 10.0092 -0.670532 5.42853 2.0116 2.33493ZM7.89539 11.4805C8.80994 11.4978 9.68689 11.1194 10.2987 10.4434C11.6195 8.86462 11.6195 6.57312 10.2987 4.99432C9.66687 4.32858 8.78699 3.95126 7.86609 3.95126C6.94568 3.95126 6.06531 4.32858 5.43347 4.99432C4.11267 6.57312 4.11267 8.86462 5.43347 10.4434C6.06238 11.1301 6.96179 11.509 7.89539 11.4805Z" transform="translate(20.9839 7.30423)" fill="#335061"/>
<path d="M10.2381 7.97812C10.2381 8.6908 10.1405 9.66415 9.45466 10.313C8.90063 10.7789 8.19167 11.0222 7.4667 10.9952C6.75199 11.0269 6.05264 10.7825 5.51499 10.313C4.76497 9.63087 4.70084 8.62702 4.70084 7.97812V0H0V8.72962C0 10.3186 0.262087 11.78 1.59762 13.075C3.27051 14.6973 5.67391 15.1631 7.4667 15.1631C9.19536 15.1631 11.6489 14.6945 13.3023 13.075C14.7689 11.6469 14.9334 10.0912 14.9334 8.43845V0H10.2381V7.97812Z" transform="translate(38.5762 7.58157)" fill="#335061"/>
<path d="M7.82637 20.468C3.5059 20.4634 0.00461015 16.9811 0 12.684V0H4.04284V12.6812C4.04171 14.2035 4.96282 15.5765 6.37654 16.1598C7.79026 16.7432 9.41809 16.4219 10.5007 15.3459C11.5834 14.2699 11.9076 12.6511 11.3222 11.2446C10.7367 9.83811 9.35692 8.92097 7.82637 8.92097H4.88207V4.90001H7.82637C12.1488 4.90001 15.6527 8.38503 15.6527 12.684C15.6527 16.983 12.1488 20.468 7.82637 20.468Z" transform="translate(66.9512 15.5154)" fill="#1997B5"/>
<path fill-rule="evenodd" clip-rule="evenodd" d="M4.72852 8.49669H15.5605L15.5942 8.02527C15.5942 6.24496 15.2681 3.97937 13.5449 2.16855C11.7549 0.277313 9.42676 0 7.78711 0C6.14795 0 3.96777 0.324463 2.21094 2.07147C0.74707 3.55786 0 5.69312 0 7.7646C0 10.1605 0.911621 12.0684 2.18018 13.3301C3.87256 15.0134 5.79102 15.6096 7.97119 15.6096C9.58887 15.6119 11.1763 15.1706 12.5581 14.334C13.8999 13.504 14.8916 12.2152 15.3462 10.7096L10.9214 10.2576C10.7051 10.7434 10.355 11.1587 9.91211 11.4556C9.32422 11.7506 8.6709 11.8909 8.01318 11.8632C7.29932 11.8632 6.32373 11.7329 5.60693 10.9564C5.04199 10.2594 4.73242 9.39198 4.72852 8.49669ZM10.2915 4.04037C10.7505 4.50812 11.0757 5.08917 11.2339 5.72363H4.89062C5.01367 5.14145 5.29492 4.60419 5.70459 4.17072C6.97656 2.97043 8.95264 2.91428 10.2915 4.04037Z" transform="translate(84.1035 20.3849)" fill="#1997B5"/>
<path fill-rule="evenodd" clip-rule="evenodd" d="M4.73975 8.51056H15.5747L15.5942 8.02527C15.5942 6.24496 15.2681 3.97937 13.5449 2.16855C11.7549 0.277313 9.42676 0 7.78711 0C6.14795 0 3.96777 0.324463 2.21094 2.07147C0.74707 3.55786 0 5.69312 0 7.7646C0 10.1605 0.911621 12.0684 2.18018 13.3302C3.87256 15.0134 5.79102 15.6096 7.97119 15.6096C9.59668 15.6096 11.1636 15.3739 12.5581 14.542C13.8999 13.6188 14.8843 12.2663 15.3462 10.7096L10.9214 10.2576C10.7051 10.7434 10.355 11.1587 9.91211 11.4556C9.3291 11.7535 8.6792 11.8986 8.02441 11.8771C7.31055 11.8771 6.33447 11.7467 5.61816 10.9703C5.05322 10.2733 4.74316 9.40585 4.73975 8.51056ZM10.3057 4.0542C10.7646 4.52194 11.0898 5.103 11.248 5.73746H4.90479C5.02783 5.15527 5.30908 4.61801 5.71875 4.18454C6.99072 2.98425 8.9668 2.9281 10.3057 4.0542Z" transform="translate(101.15 20.371)" fill="#1997B5"/>
<path d="M9.72511 4.14557C8.9522 3.66089 8.06695 3.38205 7.15443 3.33583C6.67354 3.3114 6.20006 3.46115 5.82168 3.75734C5.64793 3.92985 5.54378 4.15972 5.52893 4.40346C5.54615 4.68672 5.72176 4.93639 5.9834 5.04959C6.4329 5.25166 6.89938 5.41405 7.37748 5.53487L8.61263 5.9231C9.49908 6.16042 10.3211 6.59148 11.0188 7.18485C11.8553 7.96131 12.1564 8.84869 12.1564 9.93573C12.1945 11.3468 11.6587 12.7135 10.6703 13.7265C9.23997 15.1491 7.48343 15.3904 5.95273 15.3904C4.00101 15.3904 1.88759 14.9689 0 13.3189L1.98517 10.1798C2.47207 10.5976 3.00749 10.956 3.58 11.2474C4.18664 11.5462 4.85474 11.701 5.53171 11.6994C5.82447 11.6994 6.5717 11.6994 6.9955 11.375C7.29168 11.1515 7.4709 10.8072 7.48343 10.4377C7.47715 10.086 7.27676 9.76623 6.96204 9.60574C6.50861 9.37485 6.02818 9.20067 5.53171 9.08718L4.36069 8.73222C3.48619 8.4794 2.68384 8.0253 2.01863 7.4067C1.32447 6.71253 0.948326 5.76472 0.978645 4.78614C0.953098 3.53147 1.45899 2.32389 2.37273 1.45846C3.6748 0.260494 5.4397 0.00259846 6.76408 0.00259846C8.45234 -0.0375227 10.1189 0.387647 11.5792 1.23107L9.72511 4.14557Z" transform="translate(117.341 20.6096)" fill="#1997B5"/>
</svg>
