<?xml version="1.0" encoding="utf-8"?>
<!-- Generator: Adobe Illustrator 26.0.2, SVG Export Plug-In . SVG Version: 6.00 Build 0)  -->
<svg version="1.1" id="Layer_1" xmlns="http://www.w3.org/2000/svg" xmlns:xlink="http://www.w3.org/1999/xlink" x="0px" y="0px"
	 viewBox="0 0 300 300" style="enable-background:new 0 0 300 300;" xml:space="preserve">
<style type="text/css">
	.st0{fill-rule:evenodd;clip-rule:evenodd;fill:#007696;}
	.st1{fill-rule:evenodd;clip-rule:evenodd;fill:#FFFFFF;}
	.st2{filter:url(#Adobe_OpacityMaskFilter);}
	.st3{mask:url(#mask-2_00000148622235368948959660000003880020505515959203_);fill-rule:evenodd;clip-rule:evenodd;fill:#FFFFFF;}
	.st4{filter:url(#Adobe_OpacityMaskFilter_00000166637200926525640150000013779363304678532783_);}
	.st5{mask:url(#mask-2_00000008860202549815877160000004354954118398397346_);fill-rule:evenodd;clip-rule:evenodd;fill:#FFFFFF;}
	.st6{filter:url(#Adobe_OpacityMaskFilter_00000041259488276815307240000006982633421051127484_);}
	.st7{mask:url(#mask-2_00000023960980044665932090000002662753717065308329_);fill-rule:evenodd;clip-rule:evenodd;fill:#FFFFFF;}
	.st8{filter:url(#Adobe_OpacityMaskFilter_00000074418743852190524510000014703497351487640212_);}
	.st9{mask:url(#mask-2_00000074411094826486896490000000507346599278573208_);fill-rule:evenodd;clip-rule:evenodd;fill:#FFFFFF;}
</style>
<rect class="st0" width="300" height="300"/>
<desc>Created with Sketch.</desc>
<g id="Page-1">
	<g id="Desktop-HD-Copy-2" transform="translate(-234.000000, -59.000000)">
		<g id="Group-24" transform="translate(234.000000, 59.000000)">
			<path id="Fill-1" class="st1" d="M52.9,153.3v-10c0-2.6-0.3-4.6-3.3-4.6c-1.7,0-3.8,1.5-4.6,2.1c0.1,0.7,0.1,1.4,0.1,2.1v10.5H43
				v-10c0-2.6-0.4-4.6-3.3-4.6c-1.8,0-3.8,1.7-4.5,2.2v12.5H33v-16.2h2.2v1.8c1.2-0.8,2.2-2.2,5-2.2c2.5,0,3.7,1,4.3,2.3
				c1.2-0.8,2.8-2.3,5.6-2.3c4.6,0,4.9,3.4,4.9,6.1v10.5H52.9z"/>
			<path id="Fill-3" class="st1" d="M66,138.4c-2.2,0-4,1.7-4.2,5.3h7.8C69.5,140.5,68.3,138.4,66,138.4L66,138.4z M61.7,145.5
				c0.1,5,2.5,5.9,5.7,5.9c1.1,0,3.2-0.3,3.7-0.5l0.4,1.9c-0.5,0.2-2.9,0.6-4.8,0.6c-4.4,0-7.1-1.8-7.1-8c0-6.5,2.9-8.7,6.7-8.7
				c3.7,0,5.5,2.7,5.5,8v0.8H61.7z"/>
			<path id="Fill-5" class="st1" d="M86.3,153.3v-10c0-2.6-0.4-4.6-3.2-4.6c-1.8,0-4.1,1.7-4.8,2.2v12.5h-2.1v-16.2h2.1v1.8
				c1.2-0.8,2.6-2.2,5.3-2.2c4.5,0,4.8,3.4,4.8,6.1v10.5H86.3z"/>
			<path id="Fill-7" class="st1" d="M100.1,153.3c-2.8,0-5.1,0-5.1-4.5v-9.3h-2.2v-1.8h2.2v-3.2h2.1v3.2h4.7v1.8h-4.7v9.3
				c0,2.3,0.6,2.6,2.9,2.6c1.2,0,2.3-0.3,2.3-0.3l0.4,1.7C102.4,153,101.1,153.3,100.1,153.3"/>
			<path id="Fill-9" class="st1" d="M113.3,138.5c-3.9,0-4.9,3.5-4.9,6.5c0,3.3,1.2,6.4,5,6.4c3.9,0,4.8-3.3,4.8-6.4
				C118.2,142.1,117.3,138.5,113.3,138.5 M113.1,153.3c-4.4,0-7-2.9-7-8.1c0-5.5,3.1-8.5,7.3-8.5c4.7,0,7.1,2.9,7.1,8.3
				C120.5,150.6,117.3,153.3,113.1,153.3"/>
			<path id="Fill-11" class="st1" d="M133.4,139c-0.4-0.1-1-0.2-1.9-0.2c-2,0-3.5,1.2-4.3,2.3v11.1H125V137h2.3v2
				c0.7-1.2,2.6-2.3,4.7-2.3c1,0,1.6,0.1,1.9,0.2L133.4,139z"/>
			<path id="Fill-13" class="st1" d="M164.9,153.3v-10c0-2.6-0.3-4.6-3.3-4.6c-1.7,0-3.8,1.5-4.6,2.1c0.1,0.7,0.1,1.4,0.1,2.1v10.5
				h-2.2v-10c0-2.6-0.4-4.6-3.3-4.6c-1.8,0-3.8,1.7-4.5,2.2v12.5h-2.2v-16.2h2.2v1.8c1.2-0.8,2.2-2.2,5-2.2c2.5,0,3.7,1,4.3,2.3
				c1.2-0.8,2.9-2.3,5.6-2.3c4.6,0,4.9,3.4,4.9,6.1v10.5H164.9z"/>
			<path id="Fill-15" class="st1" d="M177.9,138.4c-2.2,0-4,1.7-4.2,5.3h7.8C181.4,140.5,180.2,138.4,177.9,138.4L177.9,138.4z
				 M173.6,145.5c0.1,5,2.5,5.9,5.7,5.9c1.1,0,3.2-0.3,3.7-0.5l0.4,1.9c-0.5,0.2-2.9,0.6-4.8,0.6c-4.4,0-7.1-1.8-7.1-8
				c0-6.5,2.9-8.7,6.7-8.7c3.7,0,5.5,2.7,5.5,8v0.8H173.6z"/>
			<path id="Fill-17" class="st1" d="M198,139.4c-0.8-0.2-1.8-0.3-3.4-0.3c-3.9,0-5.3,2.9-5.3,6.3c0,4.3,1.9,6.1,4.7,6.1
				c1.7,0,3.4-1.4,4.1-1.9V139.4z M198,153.1v-1.5c-1.1,0.9-2.5,1.7-4.2,1.7c-2.9,0-6.8-1-6.8-8.1c0-5.4,3.5-8.1,7.7-8.1
				c1.8,0,2.1,0.1,3.3,0.4v-6.3h2.3v21.9H198z"/>
			<g id="Clip-20">
			</g>
			<defs>
				<filter id="Adobe_OpacityMaskFilter" filterUnits="userSpaceOnUse" x="205.8" y="130.1" width="3.3" height="22.2">
					<feColorMatrix  type="matrix" values="1 0 0 0 0  0 1 0 0 0  0 0 1 0 0  0 0 0 1 0"/>
				</filter>
			</defs>
			
				<mask maskUnits="userSpaceOnUse" x="205.8" y="130.1" width="3.3" height="22.2" id="mask-2_00000148622235368948959660000003880020505515959203_">
				<g class="st2">
					<polygon id="path-1_00000155111358748278417290000014118084333193046913_" class="st1" points="33,182.1 269,182.1 269,117.9 
						33,117.9 					"/>
				</g>
			</mask>
			<path id="Fill-19" class="st3" d="M206.5,152.2h2v-15.5h-2V152.2z M207.5,133.8l-1.6-1.9l1.6-1.8l1.7,1.8L207.5,133.8z"/>
			<defs>
				
					<filter id="Adobe_OpacityMaskFilter_00000129174461454659494280000005217328474033821361_" filterUnits="userSpaceOnUse" x="213.6" y="136.7" width="12.2" height="16.6">
					<feColorMatrix  type="matrix" values="1 0 0 0 0  0 1 0 0 0  0 0 1 0 0  0 0 0 1 0"/>
				</filter>
			</defs>
			
				<mask maskUnits="userSpaceOnUse" x="213.6" y="136.7" width="12.2" height="16.6" id="mask-2_00000008860202549815877160000004354954118398397346_">
				<g style="filter:url(#Adobe_OpacityMaskFilter_00000129174461454659494280000005217328474033821361_);">
					<polygon id="path-1_00000137812036689831443760000011774842234752304786_" class="st1" points="33,182.1 269,182.1 269,117.9 
						33,117.9 					"/>
				</g>
			</mask>
			<path id="Fill-21" class="st5" d="M220,138.4c-2.2,0-4,1.7-4.2,5.3h7.8C223.5,140.5,222.3,138.4,220,138.4L220,138.4z
				 M215.7,145.5c0.1,5,2.5,5.9,5.7,5.9c1.1,0,3.2-0.3,3.7-0.5l0.4,1.9c-0.5,0.2-2.9,0.6-4.8,0.6c-4.4,0-7.1-1.8-7.1-8
				c0-6.5,2.9-8.7,6.7-8.7c3.7,0,5.5,2.7,5.5,8v0.8H215.7z"/>
			<defs>
				
					<filter id="Adobe_OpacityMaskFilter_00000095308771780160863040000018007206886376428977_" filterUnits="userSpaceOnUse" x="231.3" y="136.7" width="8.9" height="15.5">
					<feColorMatrix  type="matrix" values="1 0 0 0 0  0 1 0 0 0  0 0 1 0 0  0 0 0 1 0"/>
				</filter>
			</defs>
			
				<mask maskUnits="userSpaceOnUse" x="231.3" y="136.7" width="8.9" height="15.5" id="mask-2_00000023960980044665932090000002662753717065308329_">
				<g style="filter:url(#Adobe_OpacityMaskFilter_00000095308771780160863040000018007206886376428977_);">
					<polygon id="path-1_00000145778532483911436720000002835610257875306928_" class="st1" points="33,182.1 269,182.1 269,117.9 
						33,117.9 					"/>
				</g>
			</mask>
			<path id="Fill-22" class="st7" d="M239.8,139c-0.4-0.1-1-0.2-1.9-0.2c-2,0-3.5,1.2-4.3,2.3v11.1h-2.3V137h2.3v2
				c0.7-1.2,2.6-2.3,4.7-2.3c1,0,1.6,0.1,1.9,0.2L239.8,139z"/>
			<defs>
				
					<filter id="Adobe_OpacityMaskFilter_00000155862414650477786810000009350465325156235439_" filterUnits="userSpaceOnUse" x="208.1" y="117.9" width="60.9" height="64.3">
					<feColorMatrix  type="matrix" values="1 0 0 0 0  0 1 0 0 0  0 0 1 0 0  0 0 0 1 0"/>
				</filter>
			</defs>
			
				<mask maskUnits="userSpaceOnUse" x="208.1" y="117.9" width="60.9" height="64.3" id="mask-2_00000074411094826486896490000000507346599278573208_">
				<g style="filter:url(#Adobe_OpacityMaskFilter_00000155862414650477786810000009350465325156235439_);">
					<polygon id="path-1_00000116210139463212457820000005497742475866982585_" class="st1" points="33,182.1 269,182.1 269,117.9 
						33,117.9 					"/>
				</g>
			</mask>
			<path id="Fill-23" class="st9" d="M268.7,117.9c1.8,16.2-8.9,29.3-19.6,37.7c10-14.8,8.4-27.7,7.3-30.8
				c2.6,12.7-2.9,24.1-10.2,33c-4,2.9-7.8,5.1-10.7,6.5c-7.6,3.7-17.5,5.3-27.3,3.6v2.2c8.1,1.3,17.6,0.6,28.3-4.4
				c2-1.1,4-2.3,5.8-3.4c-5.2,5.3-10.7,9.3-14.7,11.8c-5.3,3.2-12.1,5.5-19.3,6v2.1c6.3-0.6,13.2-2.6,20.4-6.8
				c7.8-5.2,13.5-10.6,17.7-15.8C270.2,142,269.6,121.9,268.7,117.9"/>
		</g>
	</g>
</g>
</svg>
