<?xml version="1.0" standalone="no"?>
<!DOCTYPE svg PUBLIC "-//W3C//DTD SVG 20010904//EN"
 "http://www.w3.org/TR/2001/REC-SVG-20010904/DTD/svg10.dtd">
<svg version="1.0" xmlns="http://www.w3.org/2000/svg"
 width="646.000000pt" height="218.000000pt" viewBox="0 0 646.000000 218.000000"
 preserveAspectRatio="xMidYMid meet">

<g transform="translate(0.000000,218.000000) scale(0.100000,-0.100000)"
fill="#000000" stroke="none">
<path d="M0 1090 l0 -1090 3230 0 3230 0 0 1090 0 1090 -3230 0 -3230 0 0
-1090z m6097 618 c-3 -7 -5 -2 -5 12 0 14 2 19 5 13 2 -7 2 -19 0 -25z m-1382
-188 c18 -20 18 -21 -3 -43 -21 -20 -23 -20 -39 -5 -14 14 -15 22 -5 43 14 30
23 31 47 5z m1352 -2 c-3 -8 -6 -5 -6 6 -1 11 2 17 5 13 3 -3 4 -12 1 -19z
m-1537 -253 l0 -255 -30 0 c-19 0 -30 5 -30 14 0 12 -5 12 -31 -1 -21 -10 -48
-14 -87 -11 -46 4 -60 10 -83 36 -60 67 -65 192 -9 268 30 42 81 64 148 64
l62 0 0 70 0 70 30 0 30 0 0 -255z m1495 136 c-60 -143 -162 -281 -305 -412
-51 -46 -151 -142 -224 -214 -161 -160 -280 -251 -411 -315 -106 -52 -243 -96
-331 -106 -53 -7 -54 -6 -54 19 0 23 5 26 48 32 136 17 281 64 382 122 67 39
217 152 280 211 l55 52 -59 -35 c-177 -104 -426 -160 -629 -140 -77 7 -77 7
-77 36 0 27 2 29 28 22 15 -5 90 -8 167 -7 229 1 399 56 606 193 109 72 206
208 269 378 16 43 29 72 30 65 1 -26 -51 -157 -94 -238 -56 -105 -42 -99 90
38 106 111 165 192 217 300 18 36 33 65 35 63 2 -1 -8 -30 -23 -64z m-3855 4
l0 -35 55 0 c52 0 55 -1 55 -25 0 -24 -3 -25 -55 -25 l-55 0 0 -114 c0 -63 3
-121 6 -130 5 -12 20 -16 59 -16 39 0 54 -4 59 -16 10 -27 -3 -34 -69 -34 -57
0 -66 3 -84 26 -19 24 -21 40 -21 155 l0 129 -25 0 c-20 0 -25 5 -25 25 0 20
5 25 25 25 22 0 25 4 25 35 0 31 3 35 25 35 22 0 25 -4 25 -35z m-1221 -42
c16 -19 17 -19 60 4 48 25 105 30 145 12 46 -21 56 -63 56 -223 l0 -146 -30 0
-30 0 0 143 c0 113 -3 147 -16 165 -19 28 -61 29 -114 2 l-40 -20 0 -145 0
-145 -24 0 -24 0 -4 144 c-3 124 -6 147 -22 165 -24 27 -69 27 -112 0 l-34
-21 0 -113 c0 -148 -6 -175 -36 -175 l-24 0 0 185 0 185 30 0 c20 0 30 -5 30
-15 0 -12 6 -11 33 6 42 27 132 22 156 -8z m571 14 c37 -18 71 -92 68 -147
l-3 -45 -112 -3 c-62 -1 -113 -6 -113 -10 0 -4 5 -24 11 -45 15 -54 43 -69
131 -66 71 2 73 2 73 -22 0 -23 -3 -24 -80 -27 -139 -4 -185 40 -185 178 0 92
24 151 72 180 37 23 100 26 138 7z m395 3 c44 -17 55 -62 55 -225 l0 -145 -25
0 -25 0 0 129 c0 126 -9 178 -33 193 -21 13 -59 9 -104 -13 l-43 -21 0 -144 0
-144 -25 0 -25 0 0 185 0 185 25 0 c16 0 25 -6 25 -15 0 -19 3 -19 42 5 36 22
91 26 133 10z m723 -16 c90 -66 86 -262 -6 -329 -21 -16 -43 -20 -99 -20 -68
0 -74 2 -106 33 -86 84 -69 261 32 321 46 28 137 25 179 -5z m219 7 c5 -19 5
-19 36 0 33 19 117 27 117 10 0 -29 -14 -41 -49 -41 -20 0 -51 -9 -68 -20
l-33 -20 0 -135 0 -135 -30 0 -30 0 0 173 c0 96 3 177 7 180 14 14 45 6 50
-12z m652 -8 c16 -19 17 -19 60 4 48 25 105 30 145 12 46 -21 56 -63 56 -223
l0 -146 -29 0 -29 0 0 141 c0 112 -4 145 -16 165 -21 30 -62 32 -116 4 l-40
-20 0 -145 0 -145 -24 0 c-23 0 -23 0 -28 145 -4 122 -7 147 -23 165 -23 26
-68 26 -111 -1 l-34 -21 0 -106 c0 -150 -7 -182 -36 -182 l-24 0 0 185 0 185
30 0 c20 0 30 -5 30 -15 0 -12 6 -11 33 6 42 27 132 22 156 -8z m571 14 c37
-18 71 -92 68 -147 l-3 -45 -112 -3 c-62 -1 -113 -6 -113 -10 0 -4 5 -24 11
-44 14 -52 51 -70 137 -67 65 2 67 2 67 -22 0 -23 -3 -24 -80 -27 -139 -4
-185 40 -185 178 0 92 24 151 72 180 37 23 100 26 138 7z m640 -167 l0 -180
-25 0 -25 0 0 180 0 180 25 0 25 0 0 -180z m341 154 c31 -27 49 -76 49 -129
l0 -45 -116 0 -116 0 6 -27 c21 -88 42 -103 146 -103 62 0 70 -2 70 -19 0 -25
-19 -31 -98 -31 -49 0 -76 5 -99 20 -55 33 -68 64 -68 160 0 101 21 152 76
182 43 24 119 20 150 -8z m377 4 c-2 -19 -11 -24 -52 -30 -29 -4 -58 -16 -72
-29 -23 -21 -24 -29 -24 -151 l0 -128 -25 0 -25 0 0 175 0 175 25 0 c19 0 25
-5 25 -22 0 -15 3 -19 8 -11 14 21 66 43 105 43 34 0 38 -3 35 -22z m379 0
c-3 -8 -6 -5 -6 6 -1 11 2 17 5 13 3 -3 4 -12 1 -19z m-10 -40 c-3 -8 -6 -5
-6 6 -1 11 2 17 5 13 3 -3 4 -12 1 -19z"/>
<path d="M4332 1314 c-12 -8 -29 -28 -37 -44 -31 -59 -11 -175 33 -199 29 -16
78 -14 112 4 l30 16 0 119 0 120 -58 0 c-36 0 -66 -6 -80 -16z"/>
<path d="M1423 1340 c-25 -10 -48 -43 -57 -82 l-6 -28 85 0 c84 0 85 0 85 25
0 36 -19 71 -47 84 -28 13 -30 13 -60 1z"/>
<path d="M2479 1327 c-64 -49 -64 -222 -1 -256 27 -15 103 -13 123 2 57 44 60
196 4 244 -29 26 -98 31 -126 10z"/>
<path d="M3983 1340 c-25 -10 -48 -43 -57 -82 l-6 -28 85 0 c84 0 85 0 85 25
0 36 -19 71 -47 84 -28 13 -30 13 -60 1z"/>
<path d="M4943 1340 c-23 -9 -40 -35 -53 -81 l-9 -29 90 0 c49 0 89 3 89 8 0
29 -24 84 -43 97 -24 17 -41 18 -74 5z"/>
</g>
</svg>
