<svg xmlns="http://www.w3.org/2000/svg" viewBox="0 0 943.74 943.74"><defs><style>.cls-1{fill:#da0000;}.cls-2,.cls-3{fill:#fff;}.cls-3{fill-rule:evenodd;}</style></defs><g id="Layer_2" data-name="Layer 2"><g id="Layer_1-2" data-name="Layer 1"><rect class="cls-1" width="943.74" height="943.74"/><polygon class="cls-2" points="833.78 406.08 833.78 390.49 746.8 390.49 746.8 515.91 836.25 515.91 836.25 500.32 764.41 500.32 764.41 459.83 826.21 459.83 826.21 444.6 764.41 444.6 764.41 406.08 833.78 406.08"/><polygon class="cls-3" points="216.84 440.76 163.09 408.02 163.09 491.85 180.49 500.68 180.49 438.22 216.85 459.49 253.21 438.22 253.21 500.68 270.58 491.84 270.58 408.02 216.84 440.76"/><path class="cls-3" d="M322.49,389.19,220.55,330.44a7.41,7.41,0,0,0-7.4,0L111.21,389.19a7.41,7.41,0,0,0-3.72,6.42V513.07a7.42,7.42,0,0,0,3.72,6.43l101.94,58.74a7.41,7.41,0,0,0,7.4,0L322.49,519.5a7.43,7.43,0,0,0,3.71-6.43V395.61A7.42,7.42,0,0,0,322.49,389.19Zm-106,172.13-92.67-53.44.31-107.19,92.67-53.13L309.52,401V507.72Z"/><path class="cls-2" d="M498.3,391.09v70.64q0,26.61,13.52,40.82t37.77,14.19q24.27,0,37.78-14.11t13.52-40.9V391.09H584.08V461q0,20.22-8.84,30.08T549.77,501q-34.14,0-34.14-39.93V391.09Z"/><path class="cls-2" d="M717.15,439.94a31.34,31.34,0,0,0,4.49-17q0-15.23-11.53-23.83t-32.66-8.6H622.16V515.91H681q23.07,0,35.13-8.78T728.16,482q0-12.18-6.16-20.15a31.52,31.52,0,0,0-16.91-11A29.38,29.38,0,0,0,717.15,439.94ZM639.77,405h36.1q13.54,0,20.86,5.11t7.31,15q0,9.85-7.31,15t-20.86,5.11h-36.1Zm70.6,75.61q0,10.75-7.57,15.77t-22.53,5h-40.5V459.65h40.5Q710.38,459.65,710.37,480.61Z"/><path class="cls-2" d="M467.18,492.35a60.48,60.48,0,0,0,13.95-38.5c0-35.06-30.48-63.48-68.09-63.48S345,418.79,345,453.85s30.49,63.48,68.09,63.48a70.91,70.91,0,0,0,42.43-13.83L471.4,520l11.15-11.5ZM413,502.54c-28.84,0-52.22-21.8-52.22-48.69S384.2,405.16,413,405.16s52.22,21.8,52.22,48.69S441.88,502.54,413,502.54Z"/><path class="cls-2" d="M333.42,583.84v-3.38h24.51v3.38H347.59v30.54h-3.73V583.84Z"/><path class="cls-2" d="M365.78,614.38H362.1v-35.2h3.68v12.06a17.57,17.57,0,0,1,7.54-1.86q4.9,0,6.6,2.64t1.69,9.42v12.94h-3.68V601.53q0-5.09-1-7c-.67-1.26-2.09-1.89-4.24-1.89a16.32,16.32,0,0,0-6,1.13l-.93.34Z"/><path class="cls-2" d="M405.09,611.34l1.42-.15.1,2.9a70.78,70.78,0,0,1-9.56.78q-5.3,0-7.5-3.06c-1.47-2-2.21-5.22-2.21-9.54q0-12.9,10.25-12.89,4.95,0,7.4,2.77c1.64,1.84,2.45,4.74,2.45,8.7l-.19,2.79H391.07c0,2.72.49,4.72,1.47,6s2.69,2,5.12,2S402.57,611.54,405.09,611.34Zm-1.32-10.64q0-4.51-1.45-6.37t-4.71-1.87a6,6,0,0,0-4.9,2c-1.09,1.3-1.66,3.4-1.69,6.27Z"/><path class="cls-2" d="M427.64,614.38H424V589.87h3.63v1.71a13.9,13.9,0,0,1,7.16-2.2q4.56,0,6.37,2.5a18.41,18.41,0,0,1,4.19-1.75,16.53,16.53,0,0,1,4.54-.75c3.27,0,5.46.87,6.59,2.62s1.69,4.89,1.69,9.44v12.94h-3.67V601.53q0-5.09-1-7t-4.17-1.89a12.68,12.68,0,0,0-3.33.47,16.94,16.94,0,0,0-2.65.9l-.93.45c.42,1.07.63,3.46.63,7.15v12.75h-3.67V601.73q0-5.29-1-7.18c-.64-1.26-2-1.89-4.19-1.89a11.71,11.71,0,0,0-3.21.47,15.54,15.54,0,0,0-2.53.9l-.83.45Z"/><path class="cls-2" d="M463.87,602.07q0-6.71,2.4-9.7c1.6-2,4.31-3,8.12-3s6.5,1,8.08,3,2.38,5.23,2.38,9.7-.75,7.73-2.26,9.76-4.24,3-8.23,3-6.73-1-8.24-3S463.87,606.55,463.87,602.07Zm3.77-.07q0,5.37,1.3,7.53c.87,1.43,2.68,2.15,5.45,2.15s4.56-.71,5.41-2.13,1.27-3.93,1.27-7.52-.47-6.08-1.42-7.43-2.7-2-5.26-2-4.34.68-5.3,2S467.64,598.42,467.64,602Z"/><path class="cls-2" d="M490.83,614.38V589.87h3.63v3.33a23.82,23.82,0,0,1,9-3.87v3.72a27,27,0,0,0-4.29,1.23,28.6,28.6,0,0,0-3.41,1.47l-1.22.64v18Z"/><path class="cls-2" d="M520.49,593.05h-7.8v11.72q0,4.22.62,5.54c.4.88,1.38,1.32,2.91,1.32l4.37-.29.24,3a33.54,33.54,0,0,1-5,.54q-3.83,0-5.29-1.87t-1.47-7.1v-12.9h-3.48v-3.18h3.48v-7.5h3.62v7.5h7.8Z"/><path class="cls-2" d="M534.46,625.9q-5.88,0-8.21-1.59t-2.33-5.82a5.53,5.53,0,0,1,.88-3.26,14,14,0,0,1,3-2.81,3.82,3.82,0,0,1-1.37-3.39,8.4,8.4,0,0,1,1.23-3.08l.44-.79q-3.89-1.75-3.88-7.4,0-8.38,9.17-8.38a18.19,18.19,0,0,1,4.36.49l.74.15,7.25-.2V593l-4.65-.1a6.65,6.65,0,0,1,1.61,4.9c0,3.07-.75,5.22-2.27,6.45S536.5,606,533.23,606a13.58,13.58,0,0,1-2.4-.19,10.24,10.24,0,0,0-.88,2.79c0,1,.31,1.64.93,1.89a23,23,0,0,0,5.64.37q4.71,0,6.76,1.47c1.38,1,2.06,2.89,2.06,5.73Q545.34,625.9,534.46,625.9Zm-6.91-7.7q0,2.59,1.44,3.6t5.35,1q3.9,0,5.59-1.08a4,4,0,0,0,1.69-3.6c0-1.68-.41-2.77-1.23-3.26s-2.42-.74-4.8-.74l-5.3-.24a8.59,8.59,0,0,0-2.18,2.06A4.06,4.06,0,0,0,527.55,618.2Zm.34-20.44c0,1.93.43,3.3,1.3,4.12s2.3,1.22,4.29,1.22,3.41-.4,4.26-1.22,1.28-2.2,1.28-4.14-.43-3.33-1.28-4.15-2.27-1.22-4.26-1.22-3.42.41-4.29,1.25S527.89,595.83,527.89,597.76Z"/><path class="cls-2" d="M567.5,597.27v12.55c.1,1.21,1,1.93,2.84,2.15l-.14,2.9a8,8,0,0,1-5.84-2,21.67,21.67,0,0,1-8.82,2,6.66,6.66,0,0,1-5.15-1.92,7.77,7.77,0,0,1-1.76-5.48c0-2.39.6-4.14,1.81-5.28a9.74,9.74,0,0,1,5.69-2.08l7.69-.73v-2.11a5,5,0,0,0-1.07-3.58,4,4,0,0,0-2.94-1.08,69.74,69.74,0,0,0-8.14.49l-1.52.15-.15-2.8a50.08,50.08,0,0,1,9.56-1.07q4.17,0,6.05,1.91C566.87,592.56,567.5,594.56,567.5,597.27Zm-15.1,10q0,4.51,3.73,4.51a19.91,19.91,0,0,0,6.57-1.13l1.12-.39v-8.09l-7.25.69a4.74,4.74,0,0,0-3.19,1.27A4.54,4.54,0,0,0,552.4,607.27Z"/><path class="cls-2" d="M584.22,625.9q-5.88,0-8.22-1.59t-2.32-5.82a5.53,5.53,0,0,1,.88-3.26,14,14,0,0,1,3-2.81c-.92-.62-1.37-1.75-1.37-3.39A8.51,8.51,0,0,1,577.4,606l.44-.79q-3.87-1.75-3.87-7.4,0-8.38,9.17-8.38a18.19,18.19,0,0,1,4.36.49l.74.15,7.25-.2V593l-4.65-.1a6.7,6.7,0,0,1,1.61,4.9q0,4.61-2.27,6.45c-1.53,1.22-3.92,1.83-7.19,1.83a13.58,13.58,0,0,1-2.4-.19,10.24,10.24,0,0,0-.88,2.79c0,1,.31,1.64.93,1.89a23,23,0,0,0,5.64.37c3.13,0,5.39.49,6.76,1.47s2.06,2.89,2.06,5.73Q595.1,625.9,584.22,625.9Zm-6.92-7.7c0,1.73.49,2.93,1.45,3.6s2.75,1,5.35,1,4.46-.36,5.58-1.08a3.94,3.94,0,0,0,1.69-3.6c0-1.68-.41-2.77-1.22-3.26s-2.42-.74-4.81-.74l-5.29-.24a8.42,8.42,0,0,0-2.18,2.06A4.06,4.06,0,0,0,577.3,618.2Zm.35-20.44c0,1.93.43,3.3,1.3,4.12s2.29,1.22,4.29,1.22,3.41-.4,4.26-1.22,1.28-2.2,1.28-4.14-.43-3.33-1.28-4.15-2.27-1.22-4.26-1.22-3.43.41-4.29,1.25S577.65,595.83,577.65,597.76Z"/><path class="cls-2" d="M616.62,611.34l1.42-.15.1,2.9a70.66,70.66,0,0,1-9.56.78q-5.3,0-7.5-3.06c-1.47-2-2.21-5.22-2.21-9.54q0-12.9,10.25-12.89,4.95,0,7.4,2.77c1.64,1.84,2.45,4.74,2.45,8.7l-.19,2.79H602.6c0,2.72.49,4.72,1.47,6s2.69,2,5.12,2S614.1,611.54,616.62,611.34ZM615.3,600.7c0-3-.49-5.13-1.45-6.37s-2.53-1.87-4.7-1.87a6,6,0,0,0-4.91,2c-1.09,1.3-1.66,3.4-1.69,6.27Z"/><path class="cls-2" d="M635.5,614.38V589.87h3.62v3.33a24,24,0,0,1,9-3.87v3.72a27,27,0,0,0-4.29,1.23,28.32,28.32,0,0,0-3.4,1.47l-1.23.64v18Z"/><path class="cls-2" d="M668.63,611.34l1.43-.15.09,2.9a70.66,70.66,0,0,1-9.56.78q-5.3,0-7.5-3.06c-1.47-2-2.2-5.22-2.2-9.54q0-12.9,10.24-12.89,4.95,0,7.4,2.77t2.46,8.7l-.2,2.79H654.61c0,2.72.49,4.72,1.47,6s2.69,2,5.13,2S666.12,611.54,668.63,611.34Zm-1.32-10.64q0-4.51-1.45-6.37t-4.7-1.87a6,6,0,0,0-4.91,2c-1.09,1.3-1.66,3.4-1.69,6.27Z"/><path class="cls-2" d="M674,589.87H678l5.73,21.32h1.82l5.93-21.32h3.77l-6.91,24.51h-7.35Z"/><path class="cls-2" d="M698.39,602.07q0-6.71,2.4-9.7c1.6-2,4.31-3,8.12-3s6.5,1,8.08,3,2.38,5.23,2.38,9.7-.75,7.73-2.25,9.76-4.25,3-8.24,3-6.73-1-8.24-3S698.39,606.55,698.39,602.07Zm3.77-.07c0,3.58.44,6.09,1.3,7.53s2.68,2.15,5.45,2.15,4.56-.71,5.41-2.13,1.27-3.93,1.27-7.52-.47-6.08-1.42-7.43-2.7-2-5.26-2-4.34.68-5.3,2S702.16,598.42,702.16,602Z"/><path class="cls-2" d="M725.65,614.38v-35.2h3.67v35.2Z"/><path class="cls-2" d="M752,589.87h3.68v24.51H752v-1.72a14,14,0,0,1-7.25,2.21c-3.34,0-5.55-.87-6.65-2.6s-1.64-4.93-1.64-9.61V589.87h3.68v12.74q0,5.34.93,7.16t4.21,1.81a12.2,12.2,0,0,0,3.29-.46,14.53,14.53,0,0,0,2.55-.91l.88-.44Z"/><path class="cls-2" d="M775.4,593.05h-7.79v11.72q0,4.22.61,5.54c.41.88,1.38,1.32,2.92,1.32l4.36-.29.25,3a33.64,33.64,0,0,1-5,.54c-2.54,0-4.31-.62-5.29-1.87S764,609.44,764,606v-12.9H760.5v-3.18H764v-7.5h3.63v7.5h7.79Z"/><path class="cls-2" d="M779.91,584.33v-4.27h3.68v4.27Zm0,30V589.87h3.68v24.51Z"/><path class="cls-2" d="M789.57,602.07q0-6.71,2.4-9.7c1.6-2,4.31-3,8.11-3s6.51,1,8.09,3,2.38,5.23,2.38,9.7-.75,7.73-2.25,9.76-4.25,3-8.24,3-6.73-1-8.24-3S789.57,606.55,789.57,602.07Zm3.77-.07c0,3.58.44,6.09,1.3,7.53s2.68,2.15,5.44,2.15,4.57-.71,5.42-2.13,1.28-3.93,1.28-7.52-.48-6.08-1.42-7.43-2.71-2-5.28-2-4.33.68-5.29,2S793.34,598.42,793.34,602Z"/><path class="cls-2" d="M820.21,614.38h-3.68V589.87h3.63v1.71a15.68,15.68,0,0,1,7.6-2.2q4.89,0,6.59,2.64t1.69,9.42v12.94h-3.62V601.53q0-5.09-1-7t-4.29-1.89a12.82,12.82,0,0,0-3.31.47,16.94,16.94,0,0,0-2.67.9l-.93.45Z"/><path class="cls-2" d="M842.61,614.38v-5.59h4v5.59Z"/></g></g></svg>