<svg id="Ebene_1" data-name="Ebene 1" xmlns="http://www.w3.org/2000/svg" viewBox="0 0 637.36 262.3"><defs><style>.cls-1{fill:#fff;}.cls-2{fill:none;stroke:#fff;stroke-miterlimit:10;stroke-width:3px;}.cls-3{fill:#19ae9d;}</style></defs><path d="M188.67,533.91q-5.83-5.89-5.84-16h6q0,7.56,4.22,12t11.45,4.39H217q7,0,11.29-3.22a10.1,10.1,0,0,0,4.28-8.45V515a9.67,9.67,0,0,0-3.12-7.23,15.66,15.66,0,0,0-8.67-3.89l-19.9-3.33q-8-1.33-12.5-5.78a15,15,0,0,1-4.51-11.12v-6.45a15.07,15.07,0,0,1,5.79-12.34q5.77-4.67,15.23-4.67h12.56q9,0,14.51,5.45t5.5,14.34h-6a14.25,14.25,0,0,0-3.83-10.39,13.55,13.55,0,0,0-10.17-4H204.85q-6.79,0-10.84,3.17a10.11,10.11,0,0,0-4.06,8.39v6.45a10.13,10.13,0,0,0,3,7.45A15.06,15.06,0,0,0,201.4,495l19.79,3.44q8.22,1.46,12.84,5.78A14.22,14.22,0,0,1,238.64,515v7.56a15.21,15.21,0,0,1-5.89,12.5q-5.9,4.73-15.68,4.73H204.4Q194.5,539.8,188.67,533.91Z" transform="translate(-182.83 -368.85)"/><path d="M254.43,461.09h6.11l28.57,53.36,27.79-53.36h6v77.82h-6V472.54L292.11,519.9a7.85,7.85,0,0,1-1.39,2,2,2,0,0,1-1.39.56h-1.89l-27-49.92v66.37h-6Z" transform="translate(-182.83 -368.85)"/><path d="M372.15,464.54q-1.33-3.45-4-3.45h-2.89l-29.68,77.82h6.34q4.27-11.34,8.56-22.68l17.45-46.91H368l17.45,46.91,8.45,22.68h6.34Z" transform="translate(-182.83 -368.85)"/><path d="M413,461.09h36.69q8.12,0,13,4.5t4.89,12v8.68a15.69,15.69,0,0,1-3.78,10.39,19.17,19.17,0,0,1-10.11,6.17v.11a16.55,16.55,0,0,1,6,5.45,28.78,28.78,0,0,1,4.11,8.89L470,538.91h-6.23l-6.22-21.68a20.07,20.07,0,0,0-5.61-9.34,12.74,12.74,0,0,0-8.73-3.44H419.06v34.46H413ZM446.86,499q6.56,0,10.56-3.5a11.73,11.73,0,0,0,4-9.28v-8.9a10.15,10.15,0,0,0-3.22-7.84,12.38,12.38,0,0,0-8.67-2.94H419.06V499Z" transform="translate(-182.83 -368.85)"/><path d="M502.22,466.43H477.54v-5.34H533v5.34H508.33v72.48h-6.11Z" transform="translate(-182.83 -368.85)"/><circle cx="506.21" cy="131.15" r="131.15"/><path class="cls-1" d="M628.12,538a6.93,6.93,0,0,1,0-9.16,6.12,6.12,0,0,1,4.6-1.79,6.37,6.37,0,1,1,0,12.74A6.08,6.08,0,0,1,628.12,538Z" transform="translate(-182.83 -368.85)"/><line class="cls-2" x1="449.93" y1="164.57" x2="486.46" y2="99.37"/><path class="cls-3" d="M663.46,474a8.7,8.7,0,0,1,0-11.5,7.67,7.67,0,0,1,5.78-2.25,8,8,0,1,1,0,16A7.67,7.67,0,0,1,663.46,474Z" transform="translate(-182.83 -368.85)"/><path class="cls-3" d="M664,496.84h10.58v43H664Z" transform="translate(-182.83 -368.85)"/><path class="cls-1" d="M710.54,499.21l-26.95-39h12.28l20.81,30.13,20.81-30.13h12.16l-26.95,39,28.09,40.59H738.51l-21.83-31.72L694.73,539.8H682.45Z" transform="translate(-182.83 -368.85)"/></svg>