<svg xmlns:dc="http://purl.org/dc/elements/1.1/" xmlns:cc="http://creativecommons.org/ns#" xmlns:rdf="http://www.w3.org/1999/02/22-rdf-syntax-ns#" xmlns:svg="http://www.w3.org/2000/svg" xmlns="http://www.w3.org/2000/svg" viewBox="1700 -340 1000 1000" height="100" width="220px" xml:space="preserve" id="svg2" version="1.1"><metadata id="metadata8"><rdf:RDF><cc:Work rdf:about=""><dc:format>image/svg+xml</dc:format><dc:type rdf:resource="http://purl.org/dc/dcmitype/StillImage"/></cc:Work></rdf:RDF></metadata><defs id="defs6"><clipPath id="clipPath18" clipPathUnits="userSpaceOnUse"><path id="path16" d="M 0,1080 H 1080 V 0 H 0 Z"/></clipPath></defs><g transform="matrix(4,0,0,-4,0,2300)" id="g10"><g id="g12"><g clip-path="url(#clipPath18)" id="g14"><g transform="translate(442.3369,497.5439)" id="g20"><path id="path22" style="fill:#333333;fill-opacity:1;fill-rule:nonzero;stroke:none" d="M 0,0 H -2.831 V 1.844 H 0 v 4.77 H 2.035 V 1.844 H 5.914 V 0 H 2.035 v -9.577 c 0,-0.931 0.223,-1.624 0.668,-2.078 0.423,-0.477 0.932,-0.714 1.526,-0.714 0.318,0 0.588,0.026 0.811,0.079 0.223,0.053 0.471,0.143 0.747,0.27 l 0.636,-1.749 c -0.361,-0.169 -0.726,-0.291 -1.097,-0.365 -0.371,-0.074 -0.811,-0.112 -1.319,-0.112 -1.103,0 -2.036,0.356 -2.799,1.069 -0.381,0.366 -0.679,0.815 -0.89,1.343 C 0.106,-11.305 0,-10.663 0,-9.907 Z"/></g><g transform="translate(466.0586,490.7393)" id="g24"><path id="path26" style="fill:#333333;fill-opacity:1;fill-rule:nonzero;stroke:none" d="m 0,0 c -0.636,0.382 -1.331,0.694 -2.083,0.938 -0.753,0.244 -1.605,0.366 -2.56,0.366 -0.699,0 -1.341,-0.085 -1.923,-0.255 C -7.15,0.879 -7.659,0.641 -8.093,0.334 -8.528,0.026 -8.867,-0.35 -9.11,-0.795 -9.354,-1.24 -9.476,-1.739 -9.476,-2.29 c 0,-0.508 0.111,-0.969 0.333,-1.383 0.224,-0.413 0.525,-0.763 0.907,-1.049 0.382,-0.286 0.811,-0.509 1.288,-0.668 0.477,-0.159 0.969,-0.238 1.478,-0.238 0.7,0 1.378,0.148 2.036,0.445 0.656,0.296 1.24,0.704 1.748,1.224 0.509,0.52 0.917,1.118 1.225,1.796 C -0.154,-1.484 0,-0.764 0,0 m 0,-4.166 h -0.128 c -0.53,-0.911 -1.267,-1.685 -2.209,-2.321 -0.944,-0.636 -2.041,-0.954 -3.292,-0.954 -0.848,0 -1.632,0.133 -2.352,0.398 -0.722,0.264 -1.347,0.625 -1.877,1.081 -0.53,0.456 -0.943,1.002 -1.24,1.638 -0.297,0.636 -0.445,1.324 -0.445,2.066 0,0.848 0.175,1.6 0.525,2.258 0.35,0.657 0.826,1.208 1.431,1.653 0.604,0.446 1.303,0.78 2.098,1.002 0.795,0.222 1.638,0.334 2.528,0.334 1.06,0 2.014,-0.122 2.862,-0.366 C -1.251,2.379 -0.552,2.099 0,1.781 v 0.953 c 0,0.7 -0.128,1.336 -0.382,1.909 -0.254,0.572 -0.594,1.059 -1.017,1.462 -0.425,0.403 -0.928,0.71 -1.511,0.922 -0.583,0.212 -1.192,0.318 -1.828,0.318 -0.954,0 -1.802,-0.206 -2.544,-0.62 C -8.024,6.312 -8.639,5.713 -9.126,4.929 l -1.781,1.113 c 0.615,0.954 1.451,1.711 2.512,2.273 1.06,0.561 2.258,0.843 3.593,0.843 1.038,0 1.971,-0.155 2.799,-0.461 C -1.177,8.389 -0.467,7.954 0.127,7.393 0.72,6.831 1.176,6.163 1.494,5.39 1.812,4.615 1.971,3.752 1.971,2.798 v -9.73 H 0 Z"/></g><path id="path28" style="fill:#333333;fill-opacity:1;fill-rule:nonzero;stroke:none" d="m 476.202,499.388 h 2.035 v -15.581 h -2.035 z m 1.018,4.039 c -0.445,0 -0.822,0.154 -1.129,0.461 -0.308,0.307 -0.462,0.672 -0.462,1.097 0,0.445 0.154,0.821 0.462,1.129 0.307,0.307 0.684,0.461 1.129,0.461 0.423,0 0.789,-0.154 1.096,-0.461 0.308,-0.308 0.461,-0.684 0.461,-1.129 0,-0.425 -0.153,-0.79 -0.461,-1.097 -0.307,-0.307 -0.673,-0.461 -1.096,-0.461"/><path id="path30" style="fill:#333333;fill-opacity:1;fill-rule:nonzero;stroke:none" d="m 486.664,506.575 h 2.035 v -22.768 h -2.035 z"/><g transform="translate(503.6758,485.1426)" id="g32"><path id="path34" style="fill:#333333;fill-opacity:1;fill-rule:nonzero;stroke:none" d="m 0,0 c 0.763,0 1.495,0.154 2.194,0.461 0.7,0.307 1.32,0.742 1.86,1.304 0.541,0.561 0.975,1.24 1.304,2.035 0.328,0.795 0.493,1.68 0.493,2.655 0,0.975 -0.165,1.86 -0.493,2.655 -0.329,0.795 -0.763,1.473 -1.304,2.036 -0.54,0.561 -1.16,0.996 -1.86,1.303 C 1.495,12.756 0.763,12.91 0,12.91 c -0.763,0 -1.495,-0.154 -2.194,-0.461 -0.7,-0.307 -1.32,-0.742 -1.861,-1.303 C -4.595,10.583 -5.024,9.905 -5.342,9.11 -5.66,8.315 -5.819,7.43 -5.819,6.455 -5.819,5.48 -5.66,4.595 -5.342,3.8 -5.024,3.005 -4.595,2.326 -4.055,1.765 -3.514,1.203 -2.894,0.768 -2.194,0.461 -1.495,0.154 -0.763,0 0,0 m 0,14.754 c 1.145,0 2.199,-0.212 3.164,-0.635 C 4.128,13.694 4.96,13.111 5.66,12.37 6.359,11.627 6.905,10.752 7.297,9.747 7.689,8.739 7.886,7.642 7.886,6.455 7.886,5.268 7.689,4.17 7.297,3.164 6.905,2.157 6.359,1.283 5.66,0.541 4.96,-0.202 4.128,-0.784 3.164,-1.208 2.199,-1.632 1.145,-1.844 0,-1.844 c -1.124,0 -2.168,0.212 -3.132,0.636 -0.965,0.424 -1.797,1.006 -2.497,1.749 -0.699,0.742 -1.245,1.616 -1.637,2.623 -0.392,1.006 -0.588,2.104 -0.588,3.291 0,1.187 0.196,2.284 0.588,3.292 0.392,1.005 0.938,1.88 1.637,2.623 0.7,0.741 1.532,1.324 2.497,1.749 0.964,0.423 2.008,0.635 3.132,0.635"/></g><g transform="translate(518.5249,483.8071)" id="g36"><path id="path38" style="fill:#333333;fill-opacity:1;fill-rule:nonzero;stroke:none" d="m 0,0 v 15.581 h 1.908 v -2.734 h 0.127 c 0.148,0.466 0.387,0.895 0.715,1.287 0.329,0.392 0.7,0.732 1.114,1.018 0.413,0.286 0.847,0.514 1.303,0.683 0.456,0.17 0.895,0.255 1.32,0.255 0.487,0 0.89,-0.037 1.208,-0.111 0.318,-0.073 0.625,-0.195 0.922,-0.366 L 7.981,13.769 C 7.558,13.98 6.974,14.087 6.232,14.087 5.681,14.087 5.151,13.954 4.643,13.688 4.134,13.421 3.688,13.054 3.308,12.585 2.925,12.117 2.618,11.558 2.385,10.908 2.151,10.259 2.035,9.551 2.035,8.784 V 0 Z"/></g><path id="path40" style="fill:#333333;fill-opacity:1;fill-rule:nonzero;stroke:none" d="m 533.629,494.523 h 9.857 v -1.717 h -9.857 z"/><g transform="translate(551.7207,499.3882)" id="g42"><path id="path44" style="fill:#333333;fill-opacity:1;fill-rule:nonzero;stroke:none" d="m 0,0 h 1.908 v -2.925 h 0.128 c 0.211,0.466 0.497,0.906 0.858,1.32 0.36,0.413 0.769,0.779 1.224,1.096 0.456,0.319 0.954,0.567 1.494,0.748 0.541,0.179 1.098,0.27 1.669,0.27 1.294,0 2.355,-0.339 3.181,-1.018 0.826,-0.678 1.388,-1.537 1.685,-2.575 0.509,1.017 1.24,1.871 2.195,2.56 0.953,0.688 2.098,1.033 3.433,1.033 0.934,0 1.733,-0.155 2.401,-0.461 0.668,-0.308 1.22,-0.737 1.654,-1.288 0.435,-0.552 0.752,-1.208 0.953,-1.972 0.202,-0.763 0.303,-1.589 0.303,-2.48 v -9.889 h -2.035 v 9.539 c 0,1.548 -0.297,2.719 -0.891,3.514 -0.593,0.795 -1.557,1.193 -2.892,1.193 -0.701,0 -1.342,-0.165 -1.924,-0.494 -0.584,-0.328 -1.082,-0.763 -1.495,-1.303 -0.413,-0.54 -0.732,-1.166 -0.954,-1.876 -0.223,-0.711 -0.334,-1.447 -0.334,-2.21 v -8.363 h -2.036 v 9.476 c 0,1.589 -0.301,2.782 -0.906,3.577 -0.604,0.795 -1.553,1.193 -2.846,1.193 -0.721,0 -1.372,-0.17 -1.956,-0.509 C 4.234,-2.184 3.736,-2.639 3.323,-3.212 2.91,-3.784 2.593,-4.436 2.369,-5.167 2.146,-5.898 2.036,-6.657 2.036,-7.441 v -8.14 H 0 Z"/></g><g transform="translate(593.3447,490.7393)" id="g46"><path id="path48" style="fill:#333333;fill-opacity:1;fill-rule:nonzero;stroke:none" d="m 0,0 c -0.635,0.382 -1.33,0.694 -2.082,0.938 -0.753,0.244 -1.606,0.366 -2.56,0.366 -0.699,0 -1.34,-0.085 -1.923,-0.255 C -7.149,0.879 -7.658,0.641 -8.092,0.334 -8.526,0.026 -8.866,-0.35 -9.109,-0.795 -9.354,-1.24 -9.476,-1.739 -9.476,-2.29 c 0,-0.508 0.113,-0.969 0.334,-1.383 0.223,-0.413 0.526,-0.763 0.907,-1.049 0.382,-0.286 0.811,-0.509 1.289,-0.668 0.475,-0.159 0.968,-0.238 1.477,-0.238 0.7,0 1.378,0.148 2.036,0.445 0.657,0.296 1.24,0.704 1.748,1.224 0.509,0.52 0.917,1.118 1.225,1.796 C -0.153,-1.484 0,-0.764 0,0 m 0,-4.166 h -0.126 c -0.531,-0.911 -1.268,-1.685 -2.21,-2.321 -0.944,-0.636 -2.041,-0.954 -3.292,-0.954 -0.848,0 -1.632,0.133 -2.352,0.398 -0.721,0.264 -1.346,0.625 -1.876,1.081 -0.531,0.456 -0.944,1.002 -1.241,1.638 -0.297,0.636 -0.445,1.324 -0.445,2.066 0,0.848 0.175,1.6 0.524,2.258 0.35,0.657 0.828,1.208 1.432,1.653 0.604,0.446 1.304,0.78 2.099,1.002 0.795,0.222 1.637,0.334 2.527,0.334 1.061,0 2.014,-0.122 2.861,-0.366 C -1.25,2.379 -0.551,2.099 0,1.781 v 0.953 c 0,0.7 -0.126,1.336 -0.381,1.909 -0.254,0.572 -0.593,1.059 -1.017,1.462 -0.424,0.403 -0.928,0.71 -1.51,0.922 -0.584,0.212 -1.193,0.318 -1.829,0.318 -0.953,0 -1.802,-0.206 -2.543,-0.62 C -8.023,6.312 -8.638,5.713 -9.125,4.929 l -1.781,1.113 c 0.614,0.954 1.452,1.711 2.511,2.273 1.061,0.561 2.258,0.843 3.594,0.843 1.039,0 1.972,-0.155 2.799,-0.461 C -1.176,8.389 -0.465,7.954 0.128,7.393 0.721,6.831 1.178,6.163 1.495,5.39 1.813,4.615 1.973,3.752 1.973,2.798 v -9.73 H 0 Z"/></g><g transform="translate(609.8799,485.1426)" id="g50"><path id="path52" style="fill:#333333;fill-opacity:1;fill-rule:nonzero;stroke:none" d="m 0,0 c 0.741,0 1.458,0.144 2.147,0.429 0.688,0.286 1.292,0.711 1.812,1.273 0.52,0.561 0.933,1.239 1.24,2.034 0.308,0.795 0.462,1.701 0.462,2.719 0,1.018 -0.154,1.929 -0.462,2.734 -0.307,0.806 -0.72,1.485 -1.24,2.036 -0.52,0.55 -1.124,0.97 -1.812,1.256 C 1.458,12.767 0.741,12.91 0,12.91 c -0.742,0 -1.457,-0.148 -2.146,-0.445 -0.689,-0.297 -1.292,-0.726 -1.812,-1.288 -0.52,-0.562 -0.934,-1.24 -1.24,-2.035 C -5.506,8.347 -5.66,7.451 -5.66,6.455 c 0,-0.997 0.154,-1.897 0.462,-2.703 0.306,-0.806 0.72,-1.483 1.24,-2.035 0.52,-0.551 1.123,-0.975 1.812,-1.272 C -1.457,0.148 -0.742,0 0,0 M 5.661,1.399 H 5.533 C 5.279,0.975 4.972,0.567 4.611,0.175 4.25,-0.218 3.826,-0.562 3.339,-0.859 2.851,-1.156 2.3,-1.394 1.686,-1.574 1.07,-1.754 0.392,-1.844 -0.35,-1.844 c -0.997,0 -1.939,0.207 -2.83,0.62 -0.89,0.413 -1.669,0.986 -2.337,1.717 -0.668,0.731 -1.198,1.606 -1.589,2.623 -0.393,1.018 -0.589,2.131 -0.589,3.339 0,1.209 0.196,2.322 0.589,3.339 0.391,1.018 0.921,1.892 1.589,2.623 0.668,0.731 1.447,1.304 2.337,1.718 0.891,0.412 1.833,0.619 2.83,0.619 1.485,0 2.714,-0.317 3.689,-0.953 0.975,-0.636 1.706,-1.389 2.194,-2.258 h 0.128 l -0.128,2.162 v 7.727 H 7.568 V -1.335 H 5.661 Z"/></g><g transform="translate(637.3535,492.9653)" id="g54"><path id="path56" style="fill:#333333;fill-opacity:1;fill-rule:nonzero;stroke:none" d="m 0,0 c -0.021,0.508 -0.127,1.059 -0.317,1.653 -0.191,0.594 -0.488,1.145 -0.89,1.654 -0.404,0.508 -0.939,0.932 -1.607,1.272 -0.667,0.338 -1.489,0.508 -2.464,0.508 -0.636,0 -1.251,-0.111 -1.844,-0.334 C -7.717,4.531 -8.252,4.207 -8.728,3.784 -9.205,3.359 -9.608,2.83 -9.937,2.194 -10.265,1.558 -10.483,0.827 -10.588,0 Z M 1.813,-5.47 C 1.537,-6.042 1.187,-6.583 0.764,-7.091 0.339,-7.6 -0.154,-8.045 -0.716,-8.427 -1.277,-8.808 -1.919,-9.11 -2.64,-9.333 c -0.72,-0.223 -1.514,-0.334 -2.383,-0.334 -1.124,0 -2.164,0.207 -3.117,0.62 -0.954,0.414 -1.775,0.991 -2.464,1.733 -0.689,0.742 -1.224,1.616 -1.606,2.624 -0.381,1.006 -0.573,2.114 -0.573,3.322 0,1.124 0.175,2.189 0.525,3.196 0.35,1.006 0.853,1.887 1.511,2.64 0.657,0.752 1.451,1.351 2.385,1.796 0.932,0.445 1.981,0.668 3.148,0.668 1.123,0 2.135,-0.197 3.036,-0.589 C -1.277,5.951 -0.508,5.4 0.127,4.69 0.764,3.979 1.257,3.126 1.606,2.13 1.956,1.134 2.131,0.032 2.131,-1.177 V -1.368 C 2.109,-1.431 2.099,-1.484 2.099,-1.527 v -0.19 h -12.815 c 0.022,-1.081 0.212,-2.004 0.573,-2.767 0.36,-0.763 0.816,-1.394 1.367,-1.891 0.55,-0.499 1.166,-0.865 1.844,-1.098 0.679,-0.234 1.336,-0.35 1.972,-0.35 1.314,0 2.354,0.302 3.116,0.907 0.763,0.604 1.4,1.372 1.908,2.305 z"/></g><g transform="translate(664.1279,483.2983)" id="g58"><path id="path60" style="fill:#333333;fill-opacity:1;fill-rule:nonzero;stroke:none" d="m 0,0 c -0.849,0 -1.627,0.122 -2.337,0.366 -0.712,0.243 -1.336,0.572 -1.877,0.986 -0.54,0.413 -1.007,0.89 -1.398,1.43 -0.394,0.541 -0.695,1.108 -0.907,1.701 l 1.812,0.764 C -4.283,4.123 -3.642,3.27 -2.783,2.687 -1.924,2.104 -0.997,1.812 0,1.812 c 1.25,0 2.236,0.275 2.957,0.827 0.721,0.551 1.081,1.209 1.081,1.972 0,0.318 -0.053,0.615 -0.159,0.89 C 3.772,5.777 3.582,6.036 3.307,6.28 3.03,6.523 2.66,6.747 2.193,6.948 1.728,7.149 1.133,7.334 0.412,7.504 l -2.161,0.509 c -0.488,0.127 -0.992,0.291 -1.511,0.493 -0.519,0.201 -0.99,0.466 -1.415,0.795 -0.424,0.328 -0.768,0.726 -1.034,1.193 -0.264,0.465 -0.396,1.006 -0.396,1.621 0,0.72 0.164,1.356 0.493,1.908 0.328,0.551 0.773,1.018 1.336,1.399 0.559,0.382 1.202,0.673 1.923,0.874 0.719,0.202 1.462,0.303 2.225,0.303 0.657,0 1.293,-0.08 1.908,-0.239 0.615,-0.159 1.182,-0.387 1.701,-0.684 0.52,-0.297 0.981,-0.673 1.384,-1.129 0.403,-0.455 0.721,-0.98 0.953,-1.573 l -1.78,-0.732 c -0.425,0.89 -1.002,1.537 -1.733,1.94 -0.732,0.402 -1.575,0.604 -2.528,0.604 -0.466,0 -0.927,-0.058 -1.383,-0.175 -0.457,-0.117 -0.864,-0.286 -1.224,-0.508 -0.361,-0.223 -0.652,-0.499 -0.875,-0.827 -0.222,-0.329 -0.334,-0.695 -0.334,-1.097 0,-0.658 0.28,-1.166 0.843,-1.527 0.562,-0.36 1.351,-0.668 2.369,-0.922 L 1.462,9.158 C 3.052,8.755 4.224,8.177 4.976,7.425 5.728,6.672 6.104,5.787 6.104,4.77 6.104,4.113 5.962,3.498 5.675,2.926 5.39,2.353 4.976,1.85 4.436,1.415 3.895,0.98 3.248,0.636 2.495,0.382 1.743,0.127 0.911,0 0,0"/></g><g transform="translate(684.4453,485.1426)" id="g62"><path id="path64" style="fill:#333333;fill-opacity:1;fill-rule:nonzero;stroke:none" d="m 0,0 c 0.764,0 1.495,0.154 2.194,0.461 0.701,0.307 1.32,0.742 1.86,1.304 0.542,0.561 0.975,1.24 1.304,2.035 0.329,0.795 0.494,1.68 0.494,2.655 0,0.975 -0.165,1.86 -0.494,2.655 -0.329,0.795 -0.762,1.473 -1.304,2.036 -0.54,0.561 -1.159,0.996 -1.86,1.303 C 1.495,12.756 0.764,12.91 0,12.91 c -0.763,0 -1.494,-0.154 -2.193,-0.461 -0.7,-0.307 -1.321,-0.742 -1.861,-1.303 C -4.595,10.583 -5.023,9.905 -5.342,9.11 -5.659,8.315 -5.818,7.43 -5.818,6.455 -5.818,5.48 -5.659,4.595 -5.342,3.8 -5.023,3.005 -4.595,2.326 -4.054,1.765 -3.514,1.203 -2.893,0.768 -2.193,0.461 -1.494,0.154 -0.763,0 0,0 m 0,14.754 c 1.146,0 2.2,-0.212 3.164,-0.635 C 4.129,13.694 4.961,13.111 5.661,12.37 6.36,11.627 6.905,10.752 7.298,9.747 7.69,8.739 7.886,7.642 7.886,6.455 7.886,5.268 7.69,4.17 7.298,3.164 6.905,2.157 6.36,1.283 5.661,0.541 4.961,-0.202 4.129,-0.784 3.164,-1.208 2.2,-1.632 1.146,-1.844 0,-1.844 c -1.123,0 -2.167,0.212 -3.132,0.636 -0.964,0.424 -1.797,1.006 -2.496,1.749 -0.699,0.742 -1.245,1.616 -1.638,2.623 -0.392,1.006 -0.588,2.104 -0.588,3.291 0,1.187 0.196,2.284 0.588,3.292 0.393,1.005 0.939,1.88 1.638,2.623 0.699,0.741 1.532,1.324 2.496,1.749 0.965,0.423 2.009,0.635 3.132,0.635"/></g><g transform="translate(710.0107,497.5439)" id="g66"><path id="path68" style="fill:#333333;fill-opacity:1;fill-rule:nonzero;stroke:none" d="M 0,0 H -6.995 V -13.737 H -9.03 V 0 h -2.925 v 1.844 h 2.925 v 2.703 c 0,0.764 0.127,1.442 0.382,2.035 0.253,0.593 0.598,1.092 1.034,1.495 0.433,0.402 0.927,0.704 1.477,0.906 0.551,0.202 1.134,0.302 1.749,0.302 0.573,0 1.066,-0.058 1.479,-0.175 0.414,-0.117 0.758,-0.259 1.033,-0.429 L -2.448,6.9 C -2.682,7.048 -2.952,7.17 -3.26,7.266 -3.567,7.361 -3.922,7.409 -4.324,7.409 -5.045,7.409 -5.671,7.149 -6.2,6.63 -6.73,6.11 -6.995,5.353 -6.995,4.356 V 1.844 H 0 v 4.77 H 2.036 V 1.844 H 5.915 V 0 H 2.036 v -9.38 c 0,-0.912 0.222,-1.59 0.667,-2.035 0.424,-0.467 0.933,-0.7 1.526,-0.7 0.319,0 0.589,0.027 0.812,0.079 0.222,0.053 0.471,0.143 0.746,0.271 l 0.637,-1.749 c -0.362,-0.17 -0.727,-0.291 -1.098,-0.366 -0.371,-0.074 -0.81,-0.111 -1.319,-0.111 -1.103,0 -2.035,0.349 -2.798,1.049 -0.382,0.36 -0.679,0.8 -0.891,1.32 C 0.105,-11.103 0,-10.472 0,-9.73 Z"/></g><g transform="translate(738.0576,483.8071)" id="g70"><path id="path72" style="fill:#333333;fill-opacity:1;fill-rule:nonzero;stroke:none" d="M 0,0 -4.421,13.164 -8.777,0 h -1.971 l -5.151,15.581 h 2.067 L -9.73,2.767 h 0.031 l 4.261,12.814 h 2.163 L 1.017,2.83 H 1.05 L 5.119,15.581 H 7.122 L 1.972,0 Z"/></g><g transform="translate(761.9375,490.7393)" id="g74"><path id="path76" style="fill:#333333;fill-opacity:1;fill-rule:nonzero;stroke:none" d="m 0,0 c -0.635,0.382 -1.33,0.694 -2.082,0.938 -0.753,0.244 -1.606,0.366 -2.56,0.366 -0.699,0 -1.34,-0.085 -1.923,-0.255 C -7.149,0.879 -7.658,0.641 -8.092,0.334 -8.526,0.026 -8.866,-0.35 -9.109,-0.795 -9.354,-1.24 -9.476,-1.739 -9.476,-2.29 c 0,-0.508 0.113,-0.969 0.334,-1.383 0.223,-0.413 0.525,-0.763 0.907,-1.049 0.382,-0.286 0.811,-0.509 1.288,-0.668 0.476,-0.159 0.969,-0.238 1.478,-0.238 0.699,0 1.378,0.148 2.035,0.445 0.658,0.296 1.241,0.704 1.749,1.224 0.509,0.52 0.917,1.118 1.225,1.796 C -0.153,-1.484 0,-0.764 0,0 m 0,-4.166 h -0.126 c -0.531,-0.911 -1.268,-1.685 -2.21,-2.321 -0.944,-0.636 -2.041,-0.954 -3.292,-0.954 -0.848,0 -1.632,0.133 -2.352,0.398 -0.721,0.264 -1.347,0.625 -1.876,1.081 -0.531,0.456 -0.944,1.002 -1.241,1.638 -0.297,0.636 -0.445,1.324 -0.445,2.066 0,0.848 0.175,1.6 0.524,2.258 0.35,0.657 0.828,1.208 1.432,1.653 0.604,0.446 1.303,0.78 2.099,1.002 0.794,0.222 1.637,0.334 2.527,0.334 1.06,0 2.014,-0.122 2.861,-0.366 C -1.25,2.379 -0.551,2.099 0,1.781 v 0.953 c 0,0.7 -0.126,1.336 -0.381,1.909 -0.254,0.572 -0.594,1.059 -1.017,1.462 -0.424,0.403 -0.928,0.71 -1.51,0.922 -0.584,0.212 -1.194,0.318 -1.829,0.318 -0.954,0 -1.802,-0.206 -2.544,-0.62 C -8.023,6.312 -8.638,5.713 -9.126,4.929 l -1.78,1.113 c 0.614,0.954 1.452,1.711 2.511,2.273 1.06,0.561 2.258,0.843 3.594,0.843 1.039,0 1.972,-0.155 2.799,-0.461 C -1.176,8.389 -0.465,7.954 0.128,7.393 0.721,6.831 1.177,6.163 1.495,5.39 1.813,4.615 1.973,3.752 1.973,2.798 v -9.73 H 0 Z"/></g><g transform="translate(771.8906,483.8071)" id="g78"><path id="path80" style="fill:#333333;fill-opacity:1;fill-rule:nonzero;stroke:none" d="m 0,0 v 15.581 h 1.908 v -2.734 h 0.128 c 0.148,0.466 0.385,0.895 0.715,1.287 0.328,0.392 0.699,0.732 1.112,1.018 0.413,0.286 0.849,0.514 1.304,0.683 0.456,0.17 0.895,0.255 1.32,0.255 0.488,0 0.89,-0.037 1.208,-0.111 0.319,-0.073 0.625,-0.195 0.922,-0.366 L 7.98,13.769 C 7.558,13.98 6.975,14.087 6.233,14.087 5.681,14.087 5.151,13.954 4.643,13.688 4.135,13.421 3.688,13.054 3.308,12.585 2.926,12.117 2.618,11.558 2.386,10.908 2.151,10.259 2.036,9.551 2.036,8.784 V 0 Z"/></g><g transform="translate(797.8682,492.9653)" id="g82"><path id="path84" style="fill:#333333;fill-opacity:1;fill-rule:nonzero;stroke:none" d="M 0,0 C -0.021,0.508 -0.126,1.059 -0.316,1.653 -0.508,2.247 -0.805,2.798 -1.207,3.307 -1.61,3.815 -2.146,4.239 -2.813,4.579 -3.48,4.917 -4.303,5.087 -5.278,5.087 -5.913,5.087 -6.528,4.976 -7.122,4.753 -7.716,4.531 -8.251,4.207 -8.728,3.784 -9.205,3.359 -9.608,2.83 -9.936,2.194 -10.265,1.558 -10.482,0.827 -10.588,0 Z M 1.813,-5.47 C 1.537,-6.042 1.187,-6.583 0.764,-7.091 0.34,-7.6 -0.153,-8.045 -0.715,-8.427 -1.276,-8.808 -1.918,-9.11 -2.639,-9.333 c -0.72,-0.223 -1.515,-0.334 -2.384,-0.334 -1.124,0 -2.164,0.207 -3.117,0.62 -0.953,0.414 -1.775,0.991 -2.464,1.733 -0.689,0.742 -1.224,1.616 -1.605,2.624 -0.382,1.006 -0.573,2.114 -0.573,3.322 0,1.124 0.175,2.189 0.524,3.196 0.35,1.006 0.854,1.887 1.511,2.64 0.657,0.752 1.452,1.351 2.386,1.796 0.931,0.445 1.981,0.668 3.147,0.668 1.123,0 2.136,-0.197 3.036,-0.589 C -1.276,5.951 -0.508,5.4 0.128,4.69 0.764,3.979 1.257,3.126 1.607,2.13 1.957,1.134 2.132,0.032 2.132,-1.177 V -1.368 C 2.109,-1.431 2.099,-1.484 2.099,-1.527 v -0.19 h -12.815 c 0.022,-1.081 0.212,-2.004 0.573,-2.767 0.36,-0.763 0.816,-1.394 1.367,-1.891 0.551,-0.499 1.167,-0.865 1.845,-1.098 0.678,-0.234 1.336,-0.35 1.971,-0.35 1.314,0 2.354,0.302 3.116,0.907 0.763,0.604 1.4,1.372 1.908,2.305 z"/></g><g transform="translate(449.1538,565.0532)" id="g86"><path id="path88" style="fill:#033e8c;fill-opacity:1;fill-rule:nonzero;stroke:none" d="M 0,0 H -9.647 V 6.286 H 0 V 22.544 H 6.936 V 6.286 H 20.16 V 0 H 6.936 v -32.645 c 0,-3.174 0.759,-5.534 2.276,-7.083 1.444,-1.624 3.179,-2.435 5.203,-2.435 1.083,0 2.006,0.089 2.765,0.271 0.758,0.18 1.607,0.488 2.547,0.921 l 2.167,-5.961 c -1.229,-0.578 -2.477,-0.992 -3.74,-1.246 -1.265,-0.253 -2.763,-0.38 -4.498,-0.38 -3.759,0 -6.936,1.215 -9.538,3.641 -1.302,1.25 -2.314,2.777 -3.035,4.58 C 0.359,-38.536 0,-36.346 0,-33.77 Z"/></g><g transform="translate(514.8354,541.8579)" id="g90"><path id="path92" style="fill:#033e8c;fill-opacity:1;fill-rule:nonzero;stroke:none" d="m 0,0 c -2.167,1.301 -4.534,2.366 -7.098,3.197 -2.567,0.831 -5.475,1.247 -8.727,1.247 -2.384,0 -4.57,-0.289 -6.557,-0.867 -1.988,-0.579 -3.722,-1.392 -5.201,-2.439 -1.483,-1.048 -2.639,-2.33 -3.47,-3.847 -0.831,-1.518 -1.246,-3.216 -1.246,-5.095 0,-1.734 0.38,-3.305 1.139,-4.714 0.758,-1.41 1.788,-2.602 3.088,-3.577 1.301,-0.976 2.764,-1.734 4.39,-2.277 1.626,-0.542 3.306,-0.813 5.041,-0.813 2.383,0 4.695,0.505 6.936,1.518 2.239,1.011 4.226,2.401 5.961,4.173 1.733,1.769 3.124,3.81 4.173,6.124 C -0.525,-5.059 0,-2.602 0,0 m 0,-14.199 h -0.434 c -1.805,-3.108 -4.318,-5.744 -7.532,-7.912 -3.216,-2.168 -6.955,-3.251 -11.218,-3.251 -2.891,0 -5.566,0.451 -8.021,1.354 -2.457,0.903 -4.589,2.131 -6.395,3.685 -1.806,1.553 -3.216,3.415 -4.227,5.582 -1.012,2.168 -1.517,4.515 -1.517,7.045 0,2.889 0.596,5.455 1.788,7.696 1.193,2.239 2.819,4.119 4.879,5.637 2.057,1.517 4.442,2.655 7.152,3.413 2.711,0.759 5.583,1.138 8.617,1.138 3.613,0 6.864,-0.417 9.754,-1.246 C -4.265,8.11 -1.88,7.154 0,6.069 v 3.252 c 0,2.385 -0.434,4.553 -1.299,6.504 -0.868,1.95 -2.026,3.612 -3.47,4.986 -1.446,1.371 -3.161,2.419 -5.148,3.143 -1.989,0.721 -4.064,1.083 -6.232,1.083 -3.252,0 -6.143,-0.704 -8.671,-2.113 -2.53,-1.409 -4.624,-3.452 -6.287,-6.124 l -6.068,3.794 c 2.094,3.251 4.946,5.834 8.562,7.749 3.611,1.914 7.695,2.873 12.248,2.873 3.538,0 6.719,-0.526 9.538,-1.572 C -4.011,28.596 -1.59,27.113 0.434,25.2 2.456,23.284 4.011,21.008 5.094,18.372 6.179,15.733 6.72,12.79 6.72,9.538 V -23.628 H 0 Z"/></g><path id="path94" style="fill:#033e8c;fill-opacity:1;fill-rule:nonzero;stroke:none" d="m 534.237,571.339 h 6.936 v -53.11 h -6.936 z m 3.468,13.765 c -1.517,0 -2.801,0.524 -3.848,1.572 -1.049,1.046 -1.571,2.293 -1.571,3.74 0,1.517 0.522,2.799 1.571,3.847 1.047,1.047 2.331,1.571 3.848,1.571 1.445,0 2.691,-0.524 3.739,-1.571 1.047,-1.048 1.571,-2.33 1.571,-3.847 0,-1.447 -0.524,-2.694 -1.571,-3.74 -1.048,-1.048 -2.294,-1.572 -3.739,-1.572"/><path id="path96" style="fill:#033e8c;fill-opacity:1;fill-rule:nonzero;stroke:none" d="m 554.721,595.834 h 6.937 V 518.23 h -6.937 z"/><g transform="translate(597.5361,522.7817)" id="g98"><path id="path100" style="fill:#033e8c;fill-opacity:1;fill-rule:nonzero;stroke:none" d="m 0,0 c 2.601,0 5.094,0.524 7.479,1.572 2.384,1.046 4.498,2.529 6.339,4.443 1.842,1.915 3.324,4.228 4.445,6.937 1.12,2.71 1.679,5.727 1.679,9.05 0,3.323 -0.559,6.341 -1.679,9.051 -1.121,2.71 -2.603,5.021 -4.445,6.936 -1.841,1.914 -3.955,3.396 -6.339,4.445 C 5.094,43.48 2.601,44.005 0,44.005 c -2.603,0 -5.094,-0.525 -7.479,-1.571 -2.384,-1.049 -4.5,-2.531 -6.341,-4.445 -1.842,-1.915 -3.306,-4.226 -4.389,-6.936 -1.084,-2.71 -1.626,-5.728 -1.626,-9.051 0,-3.323 0.542,-6.34 1.626,-9.05 1.083,-2.709 2.547,-5.022 4.389,-6.937 1.841,-1.914 3.957,-3.397 6.341,-4.443 C -5.094,0.524 -2.603,0 0,0 m 0,50.292 c 3.901,0 7.496,-0.724 10.784,-2.168 3.286,-1.446 6.124,-3.433 8.509,-5.961 2.385,-2.53 4.243,-5.511 5.581,-8.943 1.338,-3.432 2.006,-7.172 2.006,-11.218 0,-4.046 -0.668,-7.786 -2.006,-11.218 C 23.536,7.352 21.678,4.371 19.293,1.843 16.908,-0.687 14.07,-2.674 10.784,-4.119 7.496,-5.563 3.901,-6.286 0,-6.286 c -3.831,0 -7.389,0.723 -10.678,2.167 -3.288,1.445 -6.123,3.432 -8.508,5.962 -2.384,2.528 -4.246,5.509 -5.581,8.941 -1.337,3.432 -2.004,7.172 -2.004,11.218 0,4.046 0.667,7.786 2.004,11.218 1.335,3.432 3.197,6.413 5.581,8.943 2.385,2.528 5.22,4.515 8.508,5.961 3.289,1.444 6.847,2.168 10.678,2.168"/></g><g transform="translate(652.0557,516.4956)" id="g102"><path id="path104" style="fill:#f20530;fill-opacity:1;fill-rule:nonzero;stroke:none" d="m 0,0 c -2.892,0 -5.548,0.417 -7.969,1.246 -2.421,0.83 -4.551,1.952 -6.394,3.36 -1.842,1.409 -3.432,3.035 -4.768,4.878 -1.339,1.842 -2.369,3.775 -3.09,5.798 l 6.178,2.601 c 1.444,-3.83 3.63,-6.737 6.558,-8.725 C -6.559,7.17 -3.397,6.177 0,6.177 c 4.261,0 7.621,0.94 10.079,2.819 2.455,1.878 3.686,4.118 3.686,6.72 0,1.084 -0.182,2.095 -0.543,3.035 -0.364,0.938 -1.013,1.824 -1.951,2.655 -0.94,0.83 -2.205,1.589 -3.792,2.277 C 5.887,24.369 3.863,25 1.408,25.579 l -7.37,1.734 c -1.664,0.434 -3.38,0.993 -5.149,1.681 -1.772,0.686 -3.378,1.589 -4.823,2.709 -1.447,1.12 -2.62,2.474 -3.524,4.064 -0.903,1.589 -1.354,3.432 -1.354,5.528 0,2.456 0.56,4.624 1.681,6.503 1.118,1.878 2.637,3.469 4.552,4.769 1.914,1.302 4.1,2.293 6.558,2.981 2.455,0.686 4.984,1.03 7.586,1.03 2.238,0 4.407,-0.271 6.503,-0.813 2.096,-0.542 4.028,-1.32 5.799,-2.33 1.77,-1.013 3.342,-2.295 4.714,-3.849 1.372,-1.554 2.457,-3.342 3.252,-5.364 l -6.068,-2.493 c -1.447,3.035 -3.415,5.238 -5.909,6.612 -2.493,1.371 -5.365,2.058 -8.617,2.058 -1.59,0 -3.16,-0.199 -4.714,-0.596 -1.555,-0.397 -2.944,-0.975 -4.172,-1.734 -1.231,-0.758 -2.223,-1.698 -2.982,-2.818 -0.758,-1.121 -1.139,-2.367 -1.139,-3.739 0,-2.241 0.957,-3.974 2.874,-5.202 1.913,-1.23 4.605,-2.277 8.076,-3.143 l 7.802,-1.952 c 5.419,-1.373 9.411,-3.343 11.977,-5.907 2.564,-2.565 3.849,-5.581 3.849,-9.051 0,-2.24 -0.49,-4.335 -1.464,-6.286 C 18.369,8.021 16.961,6.304 15.119,4.823 13.275,3.341 11.07,2.167 8.506,1.3 5.942,0.434 3.104,0 0,0"/></g><g transform="translate(706.1367,522.7817)" id="g106"><path id="path108" style="fill:#f20530;fill-opacity:1;fill-rule:nonzero;stroke:none" d="m 0,0 c 2.601,0 5.094,0.524 7.479,1.572 2.384,1.046 4.498,2.529 6.339,4.443 1.844,1.915 3.324,4.228 4.445,6.937 1.12,2.71 1.679,5.727 1.679,9.05 0,3.323 -0.559,6.341 -1.679,9.051 -1.121,2.71 -2.601,5.021 -4.445,6.936 -1.841,1.914 -3.955,3.396 -6.339,4.445 C 5.094,43.48 2.601,44.005 0,44.005 c -2.603,0 -5.094,-0.525 -7.479,-1.571 -2.384,-1.049 -4.498,-2.531 -6.341,-4.445 -1.842,-1.915 -3.306,-4.226 -4.389,-6.936 -1.084,-2.71 -1.626,-5.728 -1.626,-9.051 0,-3.323 0.542,-6.34 1.626,-9.05 1.083,-2.709 2.547,-5.022 4.389,-6.937 1.843,-1.914 3.957,-3.397 6.341,-4.443 C -5.094,0.524 -2.603,0 0,0 m 0,50.292 c 3.901,0 7.496,-0.724 10.784,-2.168 3.286,-1.446 6.124,-3.433 8.509,-5.961 2.385,-2.53 4.243,-5.511 5.581,-8.943 1.338,-3.432 2.006,-7.172 2.006,-11.218 0,-4.046 -0.668,-7.786 -2.006,-11.218 C 23.536,7.352 21.678,4.371 19.293,1.843 16.908,-0.687 14.07,-2.674 10.784,-4.119 7.496,-5.563 3.901,-6.286 0,-6.286 c -3.831,0 -7.389,0.723 -10.677,2.167 -3.289,1.445 -6.124,3.432 -8.507,5.962 -2.384,2.528 -4.248,5.509 -5.583,8.941 -1.337,3.432 -2.004,7.172 -2.004,11.218 0,4.046 0.667,7.786 2.004,11.218 1.335,3.432 3.199,6.413 5.583,8.943 2.383,2.528 5.218,4.515 8.507,5.961 3.288,1.444 6.846,2.168 10.677,2.168"/></g><g transform="translate(778.1064,565.0532)" id="g110"><path id="path112" style="fill:#f20530;fill-opacity:1;fill-rule:nonzero;stroke:none" d="m 0,0 h -23.846 v -46.824 h -6.936 V 0 h -9.972 v 6.286 h 9.972 v 9.213 c 0,2.602 0.432,4.913 1.3,6.937 0.867,2.022 2.041,3.72 3.523,5.094 1.479,1.372 3.16,2.402 5.04,3.089 1.877,0.686 3.864,1.029 5.96,1.029 1.951,0 3.632,-0.199 5.04,-0.596 1.41,-0.398 2.584,-0.885 3.523,-1.463 l -1.95,-6.07 c -0.797,0.505 -1.717,0.922 -2.765,1.247 -1.047,0.325 -2.258,0.487 -3.63,0.487 -2.457,0 -4.59,-0.885 -6.396,-2.655 -1.807,-1.771 -2.709,-4.354 -2.709,-7.75 V 6.286 H 0 V 22.544 H 6.937 V 6.286 H 20.158 V 0 H 6.937 v -31.974 c 0,-3.108 0.757,-5.42 2.275,-6.937 1.444,-1.591 3.18,-2.385 5.203,-2.385 1.083,0 2.004,0.09 2.763,0.272 0.76,0.178 1.608,0.487 2.547,0.92 l 2.169,-5.961 c -1.229,-0.579 -2.477,-0.993 -3.74,-1.247 -1.265,-0.252 -2.764,-0.379 -4.498,-0.379 -3.759,0 -6.938,1.192 -9.538,3.577 -1.302,1.227 -2.314,2.726 -3.034,4.498 C 0.359,-37.846 0,-35.697 0,-33.167 Z"/></g><g transform="translate(427.3291,597.3423)" id="g114"><path id="path116" style="fill:#f20530;fill-opacity:1;fill-rule:nonzero;stroke:none" d="m 0,0 v 9.14 h -54.1 v -39.65 h 23.57 C -13.67,-30.51 0,-16.86 0,0"/></g><g transform="translate(373.23,606.4824)" id="g118"><path id="path120" style="fill:#033e8c;fill-opacity:1;fill-rule:nonzero;stroke:none" d="m 0,0 v -93.85 h -39.11 v 54.2 h -54.12 v 9.14 C -93.23,-13.65 -79.56,0 -62.7,0 Z"/></g><path id="path122" style="fill:#f20530;fill-opacity:1;fill-rule:nonzero;stroke:none" d="m 412.344,473.518 h -39.118 v 39.118 h 39.118 z"/></g></g></g></svg>
