<?xml version="1.0" encoding="UTF-8" standalone="no"?>
<svg
   xmlns:dc="http://purl.org/dc/elements/1.1/"
   xmlns:cc="http://creativecommons.org/ns#"
   xmlns:rdf="http://www.w3.org/1999/02/22-rdf-syntax-ns#"
   xmlns:svg="http://www.w3.org/2000/svg"
   xmlns="http://www.w3.org/2000/svg"
   xmlns:xlink="http://www.w3.org/1999/xlink"
   xmlns:sodipodi="http://sodipodi.sourceforge.net/DTD/sodipodi-0.dtd"
   xmlns:inkscape="http://www.inkscape.org/namespaces/inkscape"
   width="1000"
   height="300"
   viewBox="0 0 999.99999 300"
   id="svg2"
   version="1.1"
   inkscape:version="0.91 r13725"
   sodipodi:docname="ticket.svg">
  <defs
     id="defs4">
    <linearGradient
       inkscape:collect="always"
       id="linearGradient7829">
      <stop
         style="stop-color:#ffffff;stop-opacity:1;"
         offset="0"
         id="stop7831" />
      <stop
         style="stop-color:#ffffff;stop-opacity:0;"
         offset="1"
         id="stop7833" />
    </linearGradient>
    <linearGradient
       inkscape:collect="always"
       id="linearGradient5699">
      <stop
         style="stop-color:#ffffff;stop-opacity:1;"
         offset="0"
         id="stop5701" />
      <stop
         style="stop-color:#ffffff;stop-opacity:0;"
         offset="1"
         id="stop5703" />
    </linearGradient>
    <linearGradient
       inkscape:collect="always"
       xlink:href="#linearGradient7829"
       id="linearGradient5705"
       x1="80.009529"
       y1="1028.973"
       x2="73.65303"
       y2="1008.288"
       gradientUnits="userSpaceOnUse"
       gradientTransform="matrix(0.72144879,0,0,1.4590209,707.15354,-381.5277)" />
    <radialGradient
       inkscape:collect="always"
       xlink:href="#linearGradient5699"
       id="radialGradient5715"
       cx="355.31421"
       cy="888.31384"
       fx="355.31421"
       fy="888.31384"
       r="23.157747"
       gradientTransform="matrix(1.3866214,1.1404615,-1.1447187,1.4169666,889.38938,-776.58295)"
       gradientUnits="userSpaceOnUse" />
    <linearGradient
       inkscape:collect="always"
       xlink:href="#linearGradient5699"
       id="linearGradient5731"
       x1="167.95139"
       y1="928.88293"
       x2="162.46762"
       y2="962.26166"
       gradientUnits="userSpaceOnUse"
       gradientTransform="matrix(1.1425863,0,0,1.2742678,-2.0336223,-226.04854)" />
    <linearGradient
       inkscape:collect="always"
       xlink:href="#linearGradient7829"
       id="linearGradient7835"
       x1="824.79346"
       y1="1002.3476"
       x2="841.22046"
       y2="1007.3907"
       gradientUnits="userSpaceOnUse"
       gradientTransform="matrix(0.78978389,0,0,1.010653,55.228623,-44.33666)" />
    <filter
       inkscape:collect="always"
       style="color-interpolation-filters:sRGB"
       id="filter8461"
       x="-0.24888998"
       width="1.49778"
       y="-0.2503202"
       height="1.5006404">
      <feGaussianBlur
         inkscape:collect="always"
         stdDeviation="8.5246033"
         id="feGaussianBlur8463" />
    </filter>
    <filter
       inkscape:collect="always"
       style="color-interpolation-filters:sRGB"
       id="filter4636"
       x="-0.01026662"
       width="1.0205332"
       y="-0.01254714"
       height="1.0250943">
      <feGaussianBlur
         inkscape:collect="always"
         stdDeviation="0.19716113"
         id="feGaussianBlur4638" />
    </filter>
  </defs>
  <sodipodi:namedview
     id="base"
     pagecolor="#ffffff"
     bordercolor="#666666"
     borderopacity="1.0"
     inkscape:pageopacity="0.0"
     inkscape:pageshadow="2"
     inkscape:zoom="0.5"
     inkscape:cx="520.06957"
     inkscape:cy="206.63721"
     inkscape:document-units="px"
     inkscape:current-layer="layer1"
     showgrid="false"
     showborder="true"
     showguides="true"
     inkscape:guide-bbox="true"
     inkscape:window-width="1680"
     inkscape:window-height="938"
     inkscape:window-x="1489"
     inkscape:window-y="0"
     inkscape:window-maximized="0"
     units="px"
     fit-margin-top="0"
     fit-margin-left="0"
     fit-margin-right="0"
     fit-margin-bottom="0"
     borderlayer="false">
    <inkscape:grid
       type="xygrid"
       id="grid4174"
       originx="0"
       originy="20.000025" />
  </sodipodi:namedview>
  <metadata
     id="metadata7">
    <rdf:RDF>
      <cc:Work
         rdf:about="">
        <dc:format>image/svg+xml</dc:format>
        <dc:type
           rdf:resource="http://purl.org/dc/dcmitype/StillImage" />
        <dc:title />
      </cc:Work>
    </rdf:RDF>
  </metadata>
  <g
     inkscape:label="Ticket"
     inkscape:groupmode="layer"
     id="layer1"
     style="display:inline"
     transform="translate(0,-772.36218)">
    <path
       style="opacity:1;fill:#cc002c;fill-opacity:1;fill-rule:nonzero;stroke:#ff1313;stroke-width:0.29608837;stroke-linecap:butt;stroke-miterlimit:4;stroke-dasharray:none;stroke-dashoffset:0;stroke-opacity:0.15268962"
       d="M 0.1484375 0.1484375 L 0.1484375 299.85156 L 52.537109 299.85156 A 19.971163 19.971167 0 0 1 72.5 280.0293 A 19.971163 19.971167 0 0 1 92.464844 299.85156 L 147.53711 299.85156 A 19.971163 19.971167 0 0 1 167.5 280.0293 A 19.971163 19.971167 0 0 1 187.46484 299.85156 L 242.53711 299.85156 A 19.971163 19.971167 0 0 1 262.5 280.0293 A 19.971163 19.971167 0 0 1 282.46484 299.85156 L 337.53711 299.85156 A 19.971163 19.971167 0 0 1 357.5 280.0293 A 19.971163 19.971167 0 0 1 377.46484 299.85156 L 432.53711 299.85156 A 19.971163 19.971167 0 0 1 452.5 280.0293 A 19.971163 19.971167 0 0 1 472.46484 299.85156 L 527.53711 299.85156 A 19.971163 19.971167 0 0 1 547.5 280.0293 A 19.971163 19.971167 0 0 1 567.46484 299.85156 L 622.53711 299.85156 A 19.971163 19.971167 0 0 1 642.5 280.0293 A 19.971163 19.971167 0 0 1 662.46484 299.85156 L 717.53711 299.85156 A 19.971163 19.971167 0 0 1 737.5 280.0293 A 19.971163 19.971167 0 0 1 757.46484 299.85156 L 812.53711 299.85156 A 19.971163 19.971167 0 0 1 832.5 280.0293 A 19.971163 19.971167 0 0 1 852.46484 299.85156 L 907.53711 299.85156 A 19.971163 19.971167 0 0 1 927.5 280.0293 A 19.971163 19.971167 0 0 1 947.46484 299.85156 L 999.85156 299.85156 L 999.85156 0.1484375 L 0.1484375 0.1484375 z "
       id="rect4236"
       transform="translate(0,772.36218)" />
  </g>
  <g
     inkscape:groupmode="layer"
     id="layer5"
     inkscape:label="Globe"
     style="display:inline"
     transform="translate(0,-772.36218)">
    <path
       style="opacity:1;fill:#0298d7;fill-opacity:1;fill-rule:nonzero;stroke:none;stroke-width:30;stroke-linecap:butt;stroke-miterlimit:4;stroke-dasharray:none;stroke-dashoffset:0;stroke-opacity:1"
       d="m 418.63186,917.92987 a 44.20977,45.250008 0 0 1 -44.20977,45.25001 44.20977,45.250008 0 0 1 -44.20977,-45.25001 44.20977,45.250008 0 0 1 44.20977,-45.25001 44.20977,45.250008 0 0 1 44.20977,45.25001 z"
       id="path5607" />
  </g>
  <g
     inkscape:groupmode="layer"
     id="layer3"
     inkscape:label="Glossy effect"
     style="display:inline;opacity:0.97000002"
     transform="translate(0,-772.36218)">
    <path
       transform="matrix(1.1935415,0.17279942,-0.69164387,1.0652461,232.01669,-357.9722)"
       style="display:inline;opacity:0.3;fill:url(#linearGradient5705);fill-opacity:1;fill-rule:nonzero;stroke:none;stroke-width:30;stroke-linecap:butt;stroke-linejoin:round;stroke-miterlimit:4;stroke-dasharray:none;stroke-dashoffset:0;stroke-opacity:1;filter:url(#filter4636)"
       d="m 782.71586,1097.8346 a 19.729162,17.497629 0 0 1 -19.04628,17.4871 19.729162,17.497629 0 0 1 -20.36478,-16.2765 19.729162,17.497629 0 0 1 17.63652,-18.6139 19.729162,17.497629 0 0 1 21.58567,14.988"
       id="path5697" />
    <path
       transform="matrix(0.9450175,-0.32701975,0.1783098,0.9839744,0,0)"
       style="display:inline;opacity:0.70499998;fill:url(#linearGradient5731);fill-opacity:1;fill-rule:nonzero;stroke:none;stroke-width:30;stroke-linecap:butt;stroke-linejoin:round;stroke-miterlimit:4;stroke-dasharray:none;stroke-dashoffset:0;stroke-opacity:1"
       d="m 240.90169,987.48712 a 37.966694,30.198677 0 0 1 -36.6526,30.18058 37.966694,30.198677 0 0 1 -39.18982,-28.09138 37.966694,30.198677 0 0 1 33.93975,-32.12516 37.966694,30.198677 0 0 1 41.53924,25.86757"
       id="path5723" />
    <path
       transform="matrix(0.78477197,0,0,0.73669936,78.178453,249.60102)"
       style="display:inline;opacity:1;fill:url(#radialGradient5715);fill-opacity:1;fill-rule:nonzero;stroke:none;stroke-width:30;stroke-linecap:butt;stroke-linejoin:round;stroke-miterlimit:4;stroke-dasharray:none;stroke-dashoffset:0;stroke-opacity:1;filter:url(#filter8461)"
       d="m 408.96811,894.56866 a 41.100586,40.865753 0 0 1 -41.10059,40.86576 41.100586,40.865753 0 0 1 -41.10058,-40.86576 41.100586,40.865753 0 0 1 41.10058,-40.86575 41.100586,40.865753 0 0 1 41.10059,40.86575 z"
       id="path5707" />
    <path
       transform="matrix(0.99996708,0.00811366,-0.38423642,0.92323473,0,0)"
       style="display:inline;opacity:1;fill:url(#linearGradient7835);fill-opacity:1;fill-rule:nonzero;stroke:none;stroke-width:30;stroke-linecap:butt;stroke-linejoin:round;stroke-miterlimit:4;stroke-dasharray:none;stroke-dashoffset:0;stroke-opacity:1"
       d="m 735.54267,971.07642 a 13.420114,23.686718 0 0 1 -12.95562,23.67252 13.420114,23.686718 0 0 1 -13.85245,-22.03383 13.420114,23.686718 0 0 1 11.99671,-25.19778 13.420114,23.686718 0 0 1 14.6829,20.28955"
       id="path7827" />
  </g>
  <g
     inkscape:groupmode="layer"
     id="layer2"
     inkscape:label="Title"
     style="display:inline"
     transform="translate(0,-772.36218)">
    <path
       style="color:#000000;font-style:normal;font-variant:normal;font-weight:normal;font-stretch:normal;font-size:medium;line-height:normal;font-family:sans-serif;text-indent:0;text-align:start;text-decoration:none;text-decoration-line:none;text-decoration-style:solid;text-decoration-color:#000000;letter-spacing:normal;word-spacing:normal;text-transform:none;direction:ltr;block-progression:tb;writing-mode:lr-tb;baseline-shift:baseline;text-anchor:start;white-space:normal;clip-rule:nonzero;display:inline;overflow:visible;visibility:visible;opacity:1;isolation:auto;mix-blend-mode:normal;color-interpolation:sRGB;color-interpolation-filters:linearRGB;solid-color:#000000;solid-opacity:1;fill:#ffffff;fill-opacity:1;fill-rule:nonzero;stroke:none;stroke-width:30;stroke-linecap:butt;stroke-linejoin:round;stroke-miterlimit:4;stroke-dasharray:none;stroke-dashoffset:0;stroke-opacity:1;color-rendering:auto;image-rendering:auto;shape-rendering:auto;text-rendering:auto;enable-background:accumulate"
       d="m 350.10628,834.33626 c -45.49476,13.50495 -71.64447,61.73361 -58.13953,107.22836 13.50496,45.49477 61.73362,71.64448 107.22837,58.13954 25.05446,-8.82764 43.43162,-27.1401 53.18942,-48.7434 L 426.98162,937.8549 c -0.81876,2.06056 -1.7433,4.07575 -2.79851,6.02191 -6.84667,12.62753 -18.54923,22.62217 -33.52519,27.06772 -29.95189,8.89111 -61.04042,-7.96519 -69.93153,-37.91709 -8.89111,-29.9519 7.96518,-61.04044 37.91707,-69.93155 16.66238,-4.94616 33.67133,-1.9153 47.01998,6.89672 l 14.77648,-25.93143 C 400.1519,831.35294 374.7339,827.02564 350.10628,834.33626 Z"
       id="path5624"
       inkscape:connector-curvature="0" />
    <g
       transform="translate(3.010572e-8,18.195744)"
       style="font-style:normal;font-variant:normal;font-weight:normal;font-stretch:normal;font-size:237.5px;line-height:125%;font-family:Arial;-inkscape-font-specification:Arial;letter-spacing:0px;word-spacing:0px;fill:#000000;fill-opacity:1;stroke:none;stroke-width:1px;stroke-linecap:butt;stroke-linejoin:miter;stroke-opacity:1"
       id="flowRoot4308">
      <path
         d="m 126.62769,986.26698 0,-141.24756 -50.445561,0 0,-28.75976 135.101321,0 0,28.75976 -50.32959,0 0,141.24756 -34.32617,0 z"
         style="font-style:normal;font-variant:normal;font-weight:bold;font-stretch:normal;font-size:237.5px;font-family:Arial;-inkscape-font-specification:'Arial Bold';text-align:center;text-anchor:middle;fill:#ffffff"
         id="path4381"
         inkscape:connector-curvature="0" />
      <path
         d="m 232.50537,986.26698 0,-170.00732 34.32617,0 0,170.00732 -34.32617,0 z"
         style="font-style:normal;font-variant:normal;font-weight:bold;font-stretch:normal;font-size:237.5px;font-family:Arial;-inkscape-font-specification:'Arial Bold';text-align:center;text-anchor:middle;fill:#ffffff"
         id="path4383"
         inkscape:connector-curvature="0" />
      <path
         d="m 471.04907,986.26698 0,-170.00732 34.32617,0 0,75.49438 69.34815,-75.49438 46.15478,0 -64.01367,66.21704 67.49268,103.79028 -44.41529,0 -46.73461,-79.78516 -27.83204,28.41187 0,51.37329 -34.32617,0 z"
         style="font-style:normal;font-variant:normal;font-weight:bold;font-stretch:normal;font-size:237.5px;font-family:Arial;-inkscape-font-specification:'Arial Bold';text-align:center;text-anchor:middle;fill:#ffffff"
         id="path4387"
         inkscape:connector-curvature="0" />
      <path
         d="m 642.21606,986.26698 0,-170.00732 126.05591,0 0,28.75976 -91.72973,0 0,37.68921 85.35156,0 0,28.6438 -85.35156,0 0,46.27075 94.9768,0 0,28.6438 -129.30298,0 z"
         style="font-style:normal;font-variant:normal;font-weight:bold;font-stretch:normal;font-size:237.5px;font-family:Arial;-inkscape-font-specification:'Arial Bold';text-align:center;text-anchor:middle;fill:#ffffff"
         id="path4389"
         inkscape:connector-curvature="0" />
      <path
         d="m 839.12769,986.26698 0,-141.24756 -50.44556,0 0,-28.75976 135.10132,0 0,28.75976 -50.32959,0 0,141.24756 -34.32617,0 z"
         style="font-style:normal;font-variant:normal;font-weight:bold;font-stretch:normal;font-size:237.5px;font-family:Arial;-inkscape-font-specification:'Arial Bold';text-align:center;text-anchor:middle;fill:#ffffff"
         id="path4391"
         inkscape:connector-curvature="0" />
    </g>
  </g>
</svg>
