<?xml version="1.0" encoding="utf-8"?>
<!-- Generator: Adobe Illustrator 23.0.3, SVG Export Plug-In . SVG Version: 6.00 Build 0)  -->
<svg version="1.1" id="Layer_1" xmlns="http://www.w3.org/2000/svg" xmlns:xlink="http://www.w3.org/1999/xlink" x="0px" y="0px"
	 viewBox="0 0 994.2 203.9" style="enable-background:new 0 0 994.2 203.9;" xml:space="preserve">
<style type="text/css">
	.st0{fill:#73C3D5;}
	.st1{fill:#EF8949;}
	.st2{fill:#FF7F40;}
	.st3{fill-rule:evenodd;clip-rule:evenodd;fill:#73C3D5;}
	.st4{fill-rule:evenodd;clip-rule:evenodd;fill:#FF7F40;}
</style>
<g>
	<g>
		<path class="st0" d="M387.3,62.1v58c0,11.8-9.6,21.3-21.4,21.3h-36.5c-11.8,0-21.4-9.5-21.4-21.3v-14.9h14.2v14.9
			c0,4,3.3,7.3,7.3,7.3h36.5c4,0,7.3-3.3,7.3-7.3v-58H387.3z"/>
		<path class="st0" d="M412.9,83.6v7.4h51.1v14.2h-51.1v15c0,4,3.3,7.3,7.3,7.3h58v14.2h-58c-11.8,0-21.3-9.6-21.3-21.4V83.6
			c0-11.8,9.5-21.4,21.3-21.4h58v14.2h-58C416.1,76.3,412.9,79.6,412.9,83.6"/>
		<polygon class="st0" points="568.9,62.2 568.9,141.7 554.7,130.8 503.6,91.4 503.6,141.7 489.5,141.7 489.5,62.5 503.6,73.3 
			554.7,112.7 554.7,62.1 		"/>
		<polygon class="st0" points="624.9,94 659.3,141.5 641.8,141.5 614.4,103.6 594.3,121.9 594.3,141.5 580.1,141.5 580.1,62.1 
			594.3,62.1 594.3,102.7 606,92.1 616.5,82.4 638.7,62.1 659.7,62.1 		"/>
		<rect x="671" y="62.1" class="st0" width="14.2" height="79.4"/>
		<polygon class="st0" points="776,62.2 776,141.7 761.8,130.8 710.7,91.4 710.7,141.7 696.5,141.7 696.5,62.5 710.7,73.3 
			761.8,112.7 761.8,62.1 		"/>
		<path class="st0" d="M848.2,84.1v-0.5c0-4-3.3-7.3-7.3-7.3h-32.2c-4,0-7.3,3.3-7.3,7.3v0.5c0,4,3.3,7.3,7.3,7.3h28.6
			c7.4,0,14,3.2,18.5,8.2c0.3,0.3,0.6,0.7,0.9,1c3.5,4.3,5.7,9.9,5.7,15.9c0,13.8-11.2,25.1-25.1,25.1h-24.8
			c-13.8,0-25.1-11.2-25.1-25.1h14.2c0,6,4.9,10.9,10.9,10.9h24.8c6,0,11-4.9,11-10.9c0-6-5-10.9-11-10.9h-28.6
			c-5.8,0-11-2.3-14.9-6c-1-1-1.9-2.2-2.7-3.4c-2.4-3.4-3.7-7.6-3.7-12.1v-0.5c0-11.8,9.5-21.4,21.3-21.4H841
			c11.8,0,21.4,9.6,21.4,21.4V84L848.2,84.1z"/>
		<polygon class="st1" points="870.9,141.7 871.2,141.7 870.9,141.9 		"/>
		<polygon class="st2" points="955.7,102 981.7,68.4 994.2,52.2 973.7,52.2 973.5,52.2 955.7,52.2 950.7,52.2 947.7,56.1 933.9,74 
			920.1,56.1 917.1,52.2 912.1,52.2 894.2,52.2 873.7,52.2 886.2,68.4 912.2,102.1 886.4,135.5 874,151.7 894.4,151.7 912.3,151.7 
			917.3,151.7 920.3,147.8 934,130.1 947.7,147.8 950.7,151.7 955.7,151.7 973.6,151.7 994.1,151.7 981.6,135.5 		"/>
		<polygon class="st1" points="956.4,141.9 956.3,141.7 956.4,141.7 		"/>
	</g>
	<g>
		<g>
			<g>
				<path class="st3" d="M98.2,83.9c8.7,0,15.7,7,15.7,15.7c0,8.7-7,15.7-15.7,15.7c-8.7,0-15.7-7-15.7-15.7
					C82.5,91,89.5,83.9,98.2,83.9"/>
				<path class="st2" d="M98.2,76.2c6.5,0,12.3,2.6,16.6,6.9c4.2,4.2,6.9,10.1,6.9,16.6c0,6.5-2.6,12.3-6.9,16.6
					c-4.2,4.2-10.1,6.8-16.6,6.8c-6.5,0-12.3-2.6-16.5-6.8c-4.2-4.2-6.9-10.1-6.9-16.6c0-6.5,2.6-12.3,6.9-16.6
					C85.9,78.8,91.7,76.2,98.2,76.2 M112.6,85.2c-3.7-3.7-8.8-6-14.4-6c-5.6,0-10.7,2.3-14.4,6c-3.7,3.7-6,8.8-6,14.4
					c0,5.6,2.3,10.7,6,14.4c3.7,3.7,8.8,6,14.4,6c5.6,0,10.7-2.3,14.4-6c3.7-3.7,6-8.8,6-14.4C118.6,94,116.3,88.9,112.6,85.2"/>
			</g>
			<g>
				<path class="st3" d="M186.8,83.9c8.7,0,15.7,7,15.7,15.7c0,8.7-7,15.7-15.7,15.7c-8.7,0-15.7-7-15.7-15.7
					C171.1,91,178.1,83.9,186.8,83.9"/>
				<path class="st2" d="M186.8,76.2c6.5,0,12.3,2.6,16.5,6.9c4.2,4.2,6.9,10.1,6.9,16.6c0,6.5-2.6,12.3-6.9,16.6
					c-4.2,4.2-10.1,6.8-16.5,6.8c-6.5,0-12.3-2.6-16.6-6.8c-4.2-4.2-6.9-10.1-6.9-16.6c0-6.5,2.6-12.3,6.9-16.6
					C174.5,78.8,180.3,76.2,186.8,76.2 M201.2,85.2c-3.7-3.7-8.8-6-14.4-6c-5.6,0-10.7,2.3-14.4,6c-3.7,3.7-6,8.8-6,14.4
					c0,5.6,2.3,10.7,6,14.4c3.7,3.7,8.8,6,14.4,6c5.6,0,10.7-2.3,14.4-6c3.7-3.7,6-8.8,6-14.4C207.2,94,204.9,88.9,201.2,85.2"/>
			</g>
		</g>
		<path class="st3" d="M284.7,11.5c-5.4,8.9-15.3,23.4-17.4,27.3l-1.4-16.6l-27.3,28.8c-9.4-17.8-26.5-30.9-46.8-34.8
			C186.7,7.1,166,0.5,144.8,0c-0.8,0-1.6,0-2.3,0c-0.8,0-1.6,0-2.3,0c-21.2,0.5-41.9,7-47,16.1c-20.3,3.9-37.5,17-46.8,34.8
			L19.1,22.1l-1.4,16.6c-2.1-3.8-12-18.4-17.4-27.3c-1.5,5.3,3.2,46.2,4.5,51.4c1.3,5.2,9.8,40.8,16.3,40.2c0.9-0.4,2.7-7.5,4.9-14
			L41,117c7,28,29.9,50,58.5,55.6c0.3-2,0.8-4.1,1.5-5.9c-31.9-6.1-56.2-34.3-56.2-67.8V81.9c0-28.9,20.4-53.2,47.5-59.3
			c0.1,0.2,0.1,0.4,0.2,0.6l16,43c2,5.4,5.4,10.1,11.8,10.1h22.3h22.3c6.4,0,9.8-4.7,11.8-10.1l16-43c0.1-0.2,0.1-0.4,0.2-0.6
			c27.1,6.1,47.5,30.5,47.5,59.3v16.9c0,33.6-24.3,61.8-56.2,67.8c0.8,1.8,1.2,3.9,1.5,5.9C214.1,166.9,237,145,244,117l15-27.8
			c2.2,6.4,3.9,13.6,4.9,14c6.5,0.6,15.1-35.1,16.3-40.2C281.5,57.6,286.2,16.7,284.7,11.5z M22.5,74.1l-2.7,17.6
			C11.9,69,7.8,51.8,4.5,27.4l16.7,30.6l3.1-23.1l19.3,22c-3.1,7.7-4.9,16.2-4.9,25v16.9c0,1,0,1.9,0.1,2.9L22.5,74.1z M186.8,21.1
			l-16,43c-1.2,3.1-2.7,6.1-6.1,6.1h-22.2h-22.2c-3.3,0-4.9-3-6.1-6.1l-16-43c-1.9-5.1,21.5-12,44.3-12.2
			C165.2,9.1,188.7,16,186.8,21.1z M265.2,91.7l-2.7-17.6l-16.3,27.5c0-1,0.1-1.9,0.1-2.9V81.9c0-8.8-1.7-17.3-4.9-25l19.3-22
			l3.1,23.1l16.7-30.6C277.2,51.8,273.1,69,265.2,91.7z"/>
		<path class="st0" d="M170.8,149.4h-28.3h-28.3c-20.2,0-30.9-9.9-34.6-14.1l-3,2.5c4.2,4.7,16,15.5,37.6,15.5h28.3h28.3
			c21.6,0,33.4-10.7,37.6-15.5l-3-2.5C201.7,139.5,190.9,149.4,170.8,149.4z"/>
		<path class="st4" d="M178.5,159.9c-3.3-1.7-6.9-1.6-10.3-0.3c-3.6,1.4-7.2,3.3-10.5,5.2c-1.7,0.9-3.4,1.9-5,2.8
			c-1.7-0.9-3.6-1.5-5.6-1.5H138c-2,0-4,0.5-5.6,1.5c-1.7-1-3.4-1.9-5-2.8c-3.4-1.9-6.9-3.8-10.5-5.2c-3.4-1.3-7.1-1.4-10.3,0.3
			c-7.6,3.9-8.8,14.9-8.1,22.4c0.6,7.6,3.6,19.6,12.4,21.3c1.5,0.3,3,0.2,4.5-0.2c5.7-1.5,12.1-4.7,17.9-8.3
			c1.5,0.7,3.1,1.1,4.9,1.1h9.1c1.7,0,3.4-0.4,4.9-1.1c5.8,3.6,12.2,6.7,17.9,8.3c1.5,0.4,3,0.5,4.5,0.2
			c8.8-1.7,11.8-13.8,12.4-21.3C187.3,174.8,186.2,163.8,178.5,159.9z M113.6,197.7c-10.7,2.9-14.6-38.3,1-32.3
			c3.4,1.3,7.9,3.7,13.3,6.8c-0.9,1.6-1.4,3.5-1.4,5.5v0.7c-2.6-0.8-6-1.7-10.5-2.7c7.4,4.6,5.1,3.5,10.1,5.9
			c-5.5,3.3-3,1.6-10.7,7.4c4.7-1.6,8.3-2.8,11-3.9c0,2.2,0.7,4.2,1.8,5.9C123.9,193.6,118.6,196.3,113.6,197.7z M171.4,197.7
			c-4.9-1.3-10.3-4-14.7-6.6c1-1.6,1.7-3.5,1.8-5.6c2.6,1,6,2.2,10.2,3.6c-7.4-5.5-5.3-4.2-10.1-7.1v-0.6c4.3-2.1,2.5-1.2,9.6-5.7
			c-3.9,0.9-7.1,1.7-9.6,2.4v-0.5c0-2-0.5-3.9-1.4-5.5c5.4-3.1,9.9-5.5,13.3-6.8C186,159.3,182.1,200.5,171.4,197.7z"/>
	</g>
</g>
</svg>